<svg class="railroad" xmlns="http://www.w3.org/2000/svg" xmlns:xlink="http://www.w3.org/1999/xlink" width="483" height="185" viewBox="0 0 483 185"><g class="terminator"><circle cx="26" cy="31" r="5"/></g><path class="rail" d="M31 31 H40"/><a xlink:href="#multiplicative" href="#multiplicative"><g class="nonterminal"><rect x="40" y="20" width="122.2" height="22"/><text x="101.1" y="35">multiplicative</text></g></a><path class="rail" d="M162.2 31 H174.2"/><path class="rail" d="M174.2 31 H194.2"/><path class="rail" d="M194.2 31 H423"/><path class="rail" d="M423 31 H443"/><path class="rail" d="M174.2 31 A10 10 0 0 1 184.2 41"/><path class="rail" d="M184.2 41 V44"/><path class="rail" d="M184.2 44 A10 10 0 0 0 194.2 54"/><path class="rail" d="M194.2 54 H204.2"/><path class="rail" d="M204.2 54 H224.2"/><g class="terminal"><rect x="224.2" y="43" width="32" height="22" rx="11" ry="11"/><text x="240.2" y="58">+</text></g><path class="rail" d="M256.2 54 H268.2"/><a xlink:href="#multiplicative" href="#multiplicative"><g class="nonterminal"><rect x="268.2" y="43" width="122.2" height="22"/><text x="329.3" y="58">multiplicative</text></g></a><path class="rail" d="M390.4 54 H393"/><path class="rail" d="M393 54 H413"/><path class="rail" d="M204.2 54 A10 10 0 0 1 214.2 64"/><path class="rail" d="M214.2 64 V78"/><path class="rail" d="M214.2 78 A10 10 0 0 0 224.2 88"/><g class="terminal"><rect x="224.2" y="77" width="32" height="22" rx="11" ry="11"/><text x="240.2" y="92">-</text></g><path class="rail" d="M256.2 88 H268.2"/><a xlink:href="#multiplicative" href="#multiplicative"><g class="nonterminal"><rect x="268.2" y="77" width="122.2" height="22"/><text x="329.3" y="92">multiplicative</text></g></a><path class="rail" d="M390.4 88 H393"/><path class="rail" d="M393 88 A10 10 0 0 0 403 78"/><path class="rail" d="M403 78 V64"/><path class="rail" d="M403 64 A10 10 0 0 1 413 54"/><path class="rail" d="M204.2 54 A10 10 0 0 1 214.2 64"/><path class="rail" d="M214.2 64 V112"/><path class="rail" d="M214.2 112 A10 10 0 0 0 224.2 122"/><g class="terminal"><rect x="224.2" y="111" width="34.6" height="22" rx="11" ry="11"/><text x="241.5" y="126">||</text></g><path class="rail" d="M258.8 122 H270.8"/><a xlink:href="#multiplicative" href="#multiplicative"><g class="nonterminal"><rect x="270.8" y="111" width="122.2" height="22"/><text x="331.90000000000003" y="126">multiplicative</text></g></a><path class="rail" d="M393 122 A10 10 0 0 0 403 112"/><path class="rail" d="M403 112 V64"/><path class="rail" d="M403 64 A10 10 0 0 1 413 54"/><path class="rail" d="M413 54 H423"/><path class="rail" d="M413 54 A10 10 0 0 0 423 64"/><path class="rail" d="M423 64 V145"/><path class="rail" d="M423 145 A10 10 0 0 0 413 155"/><path class="rail" d="M204.2 155 H413"/><path class="arrow" d="M313.6 151 L303.6 155 L313.6 159 Z"/><path class="rail" d="M204.2 155 A10 10 0 0 0 194.2 145"/><path class="rail" d="M194.2 145 V64"/><path class="rail" d="M194.2 64 A10 10 0 0 0 204.2 54"/><path class="rail" d="M423 54 A10 10 0 0 0 433 44"/><path class="rail" d="M433 44 V41"/><path class="rail" d="M433 41 A10 10 0 0 1 443 31"/><path class="rail" d="M443 31 H452"/><g class="terminator"><circle cx="457" cy="31" r="5"/></g></svg>