<svg class="railroad" xmlns="http://www.w3.org/2000/svg" xmlns:xlink="http://www.w3.org/1999/xlink" width="567" height="62" viewBox="0 0 567 62"><g class="terminator"><circle cx="26" cy="31" r="5"/></g><path class="rail" d="M31 31 H40"/><g class="terminal"><rect x="40" y="20" width="56.5" height="22" rx="11" ry="11"/><text x="68.25" y="35">ALTER</text></g><path class="rail" d="M96.5 31 H108.5"/><g class="terminal"><rect x="108.5" y="20" width="56.5" height="22" rx="11" ry="11"/><text x="136.75" y="35">TABLE</text></g><path class="rail" d="M165 31 H177"/><g class="leaf"><rect x="177" y="20" width="93" height="22" rx="11" ry="11"/><text x="223.5" y="35">identifier</text></g><path class="rail" d="M270 31 H282"/><g class="terminal"><rect x="282" y="20" width="41.9" height="22" rx="11" ry="11"/><text x="302.95" y="35">ADD</text></g><path class="rail" d="M323.9 31 H335.9"/><g class="leaf"><rect x="335.9" y="20" width="93" height="22" rx="11" ry="11"/><text x="382.4" y="35">identifier</text></g><path class="rail" d="M428.9 31 H440.9"/><a xlink:href="#cast_type" href="#cast_type"><g class="nonterminal"><rect x="440.9" y="20" width="85.7" height="22"/><text x="483.75" y="35">cast_type</text></g></a><path class="rail" d="M526.5999999999999 31 H535.5999999999999"/><g class="terminator"><circle cx="540.5999999999999" cy="31" r="5"/></g></svg>