<svg class="railroad" xmlns="http://www.w3.org/2000/svg" xmlns:xlink="http://www.w3.org/1999/xlink" width="550" height="62" viewBox="0 0 550 62"><g class="terminator"><circle cx="26" cy="31" r="5"/></g><path class="rail" d="M31 31 H40"/><g class="terminal"><rect x="40" y="20" width="49.2" height="22" rx="11" ry="11"/><text x="64.6" y="35">WHEN</text></g><path class="rail" d="M89.2 31 H101.2"/><a xlink:href="#value" href="#value"><g class="nonterminal"><rect x="101.2" y="20" width="56.5" height="22"/><text x="129.45" y="35">value</text></g></a><path class="rail" d="M157.7 31 H169.7"/><g class="terminal"><rect x="169.7" y="20" width="49.2" height="22" rx="11" ry="11"/><text x="194.29999999999998" y="35">THEN</text></g><path class="rail" d="M218.89999999999998 31 H230.89999999999998"/><a xlink:href="#value" href="#value"><g class="nonterminal"><rect x="230.89999999999998" y="20" width="56.5" height="22"/><text x="259.15" y="35">value</text></g></a><path class="rail" d="M287.4 31 H299.4"/><a xlink:href="#case_when_list_simple_more" href="#case_when_list_simple_more"><g class="nonterminal"><rect x="299.4" y="20" width="209.79999999999998" height="22"/><text x="404.29999999999995" y="35">case_when_list_simple_more</text></g></a><path class="rail" d="M509.2 31 H518.2"/><g class="terminator"><circle cx="523.2" cy="31" r="5"/></g></svg>