<svg class="railroad" xmlns="http://www.w3.org/2000/svg" xmlns:xlink="http://www.w3.org/1999/xlink" width="238" height="74" viewBox="0 0 238 74"><g class="terminator"><circle cx="26" cy="20" r="5"/></g><path class="rail" d="M31 20 H40"/><path class="rail" d="M40 20 H60"/><path class="rail" d="M60 20 H177.7"/><path class="rail" d="M177.7 20 H197.7"/><path class="rail" d="M40 20 A10 10 0 0 1 50 30"/><path class="rail" d="M50 30 V33"/><path class="rail" d="M50 33 A10 10 0 0 0 60 43"/><g class="terminal"><rect x="60" y="32" width="49.2" height="22" rx="11" ry="11"/><text x="84.6" y="47">ELSE</text></g><path class="rail" d="M109.2 43 H121.2"/><a xlink:href="#value" href="#value"><g class="nonterminal"><rect x="121.2" y="32" width="56.5" height="22"/><text x="149.45" y="47">value</text></g></a><path class="rail" d="M177.7 43 A10 10 0 0 0 187.7 33"/><path class="rail" d="M187.7 33 V30"/><path class="rail" d="M187.7 30 A10 10 0 0 1 197.7 20"/><path class="rail" d="M197.7 20 H206.7"/><g class="terminator"><circle cx="211.7" cy="20" r="5"/></g></svg>