<svg class="railroad" xmlns="http://www.w3.org/2000/svg" xmlns:xlink="http://www.w3.org/1999/xlink" width="294" height="74" viewBox="0 0 294 74"><g class="terminator"><circle cx="26" cy="20" r="5"/></g><path class="rail" d="M31 20 H40"/><path class="rail" d="M40 20 H60"/><path class="rail" d="M60 20 H233.29999999999998"/><path class="rail" d="M233.29999999999998 20 H253.29999999999998"/><path class="rail" d="M40 20 A10 10 0 0 1 50 30"/><path class="rail" d="M50 30 V33"/><path class="rail" d="M50 33 A10 10 0 0 0 60 43"/><a xlink:href="#case_when_list_simple" href="#case_when_list_simple"><g class="nonterminal"><rect x="60" y="32" width="173.29999999999998" height="22"/><text x="146.64999999999998" y="47">case_when_list_simple</text></g></a><path class="rail" d="M233.29999999999998 43 A10 10 0 0 0 243.29999999999998 33"/><path class="rail" d="M243.29999999999998 33 V30"/><path class="rail" d="M243.29999999999998 30 A10 10 0 0 1 253.29999999999998 20"/><path class="rail" d="M253.29999999999998 20 H262.29999999999995"/><g class="terminator"><circle cx="267.29999999999995" cy="20" r="5"/></g></svg>