<svg class="railroad" xmlns="http://www.w3.org/2000/svg" xmlns:xlink="http://www.w3.org/1999/xlink" width="308" height="74" viewBox="0 0 308 74"><g class="terminator"><circle cx="26" cy="20" r="5"/></g><path class="rail" d="M31 20 H40"/><path class="rail" d="M40 20 H60"/><path class="rail" d="M60 20 H247.9"/><path class="rail" d="M247.9 20 H267.9"/><path class="rail" d="M40 20 A10 10 0 0 1 50 30"/><path class="rail" d="M50 30 V33"/><path class="rail" d="M50 33 A10 10 0 0 0 60 43"/><a xlink:href="#case_when_list_searched" href="#case_when_list_searched"><g class="nonterminal"><rect x="60" y="32" width="187.9" height="22"/><text x="153.95" y="47">case_when_list_searched</text></g></a><path class="rail" d="M247.9 43 A10 10 0 0 0 257.9 33"/><path class="rail" d="M257.9 33 V30"/><path class="rail" d="M257.9 30 A10 10 0 0 1 267.9 20"/><path class="rail" d="M267.9 20 H276.9"/><g class="terminator"><circle cx="281.9" cy="20" r="5"/></g></svg>