<svg class="railroad" xmlns="http://www.w3.org/2000/svg" xmlns:xlink="http://www.w3.org/1999/xlink" width="489" height="96" viewBox="0 0 489 96"><g class="terminator"><circle cx="26" cy="31" r="5"/></g><path class="rail" d="M31 31 H40"/><path class="rail" d="M40 31 H60"/><a xlink:href="#case_when_list_searched" href="#case_when_list_searched"><g class="nonterminal"><rect x="60" y="20" width="187.9" height="22"/><text x="153.95" y="35">case_when_list_searched</text></g></a><path class="rail" d="M247.9 31 H259.9"/><a xlink:href="#case_else_opt" href="#case_else_opt"><g class="nonterminal"><rect x="259.9" y="20" width="114.89999999999999" height="22"/><text x="317.34999999999997" y="35">case_else_opt</text></g></a><path class="rail" d="M374.8 31 H428.7"/><path class="rail" d="M428.7 31 H448.7"/><path class="rail" d="M40 31 A10 10 0 0 1 50 41"/><path class="rail" d="M50 41 V55"/><path class="rail" d="M50 55 A10 10 0 0 0 60 65"/><a xlink:href="#value" href="#value"><g class="nonterminal"><rect x="60" y="54" width="56.5" height="22"/><text x="88.25" y="69">value</text></g></a><path class="rail" d="M116.5 65 H128.5"/><a xlink:href="#case_when_list_simple" href="#case_when_list_simple"><g class="nonterminal"><rect x="128.5" y="54" width="173.29999999999998" height="22"/><text x="215.14999999999998" y="69">case_when_list_simple</text></g></a><path class="rail" d="M301.79999999999995 65 H313.79999999999995"/><a xlink:href="#case_else_opt" href="#case_else_opt"><g class="nonterminal"><rect x="313.79999999999995" y="54" width="114.89999999999999" height="22"/><text x="371.24999999999994" y="69">case_else_opt</text></g></a><path class="rail" d="M428.7 65 A10 10 0 0 0 438.7 55"/><path class="rail" d="M438.7 55 V41"/><path class="rail" d="M438.7 41 A10 10 0 0 1 448.7 31"/><path class="rail" d="M448.7 31 H457.7"/><g class="terminator"><circle cx="462.7" cy="31" r="5"/></g></svg>