<svg class="railroad" xmlns="http://www.w3.org/2000/svg" xmlns:xlink="http://www.w3.org/1999/xlink" width="615" height="62" viewBox="0 0 615 62"><g class="terminator"><circle cx="26" cy="31" r="5"/></g><path class="rail" d="M31 31 H40"/><g class="terminal"><rect x="40" y="20" width="49.2" height="22" rx="11" ry="11"/><text x="64.6" y="35">WHEN</text></g><path class="rail" d="M89.2 31 H101.2"/><a xlink:href="#predicate_or" href="#predicate_or"><g class="nonterminal"><rect x="101.2" y="20" width="107.6" height="22"/><text x="155" y="35">predicate_or</text></g></a><path class="rail" d="M208.8 31 H220.8"/><g class="terminal"><rect x="220.8" y="20" width="49.2" height="22" rx="11" ry="11"/><text x="245.4" y="35">THEN</text></g><path class="rail" d="M270 31 H282"/><a xlink:href="#value" href="#value"><g class="nonterminal"><rect x="282" y="20" width="56.5" height="22"/><text x="310.25" y="35">value</text></g></a><path class="rail" d="M338.5 31 H350.5"/><a xlink:href="#case_when_list_searched_more" href="#case_when_list_searched_more"><g class="nonterminal"><rect x="350.5" y="20" width="224.4" height="22"/><text x="462.7" y="35">case_when_list_searched_more</text></g></a><path class="rail" d="M574.9 31 H583.9"/><g class="terminator"><circle cx="588.9" cy="31" r="5"/></g></svg>