<svg class="railroad-diagram" width="654" height="62" viewBox="0 0 654 62" xmlns="http://www.w3.org/2000/svg" xmlns:xlink="http://www.w3.org/1999/xlink">
<g transform="translate(.5 .5)">
<g>
<path stroke="#444" stroke-width="2" fill="none" d="M20 21v20m10 -20v20m-10 -10h20"></path>
</g>
<path stroke="#444" stroke-width="2" fill="none" d="M40 31h10"></path>
<g>
<path stroke="#444" stroke-width="2" fill="none" d="M50 31h0"></path>
<path stroke="#444" stroke-width="2" fill="none" d="M604 31h0"></path>
<g class="terminal ">
<path stroke="#444" stroke-width="2" fill="none" d="M50 31h0"></path>
<path stroke="#444" stroke-width="2" fill="none" d="M104 31h0"></path>
<rect stroke="#3a8a3a" fill="#d7f0d7" stroke-width="1.6" x="50" y="20" width="54" height="22" rx="10" ry="10"></rect>
<text fill="#143a14" font-family="monospace" font-size="13" font-weight="bold" text-anchor="middle" x="77" y="35">WHEN</text>
</g>
<path stroke="#444" stroke-width="2" fill="none" d="M104 31h10"></path>
<path stroke="#444" stroke-width="2" fill="none" d="M114 31h10"></path>
<g class="non-terminal ">
<path stroke="#444" stroke-width="2" fill="none" d="M124 31h0"></path>
<path stroke="#444" stroke-width="2" fill="none" d="M186.5 31h0"></path>
<rect stroke="#3a5a9a" fill="#e3ecfb" stroke-width="1.6" x="124" y="20" width="62.5" height="22"></rect>
<a xlink:href="#value"><text fill="#142a5a" font-family="monospace" font-size="13" font-weight="bold" text-anchor="middle" x="155.25" y="35">value</text>
</a>
</g>
<path stroke="#444" stroke-width="2" fill="none" d="M186.5 31h10"></path>
<path stroke="#444" stroke-width="2" fill="none" d="M196.5 31h10"></path>
<g class="terminal ">
<path stroke="#444" stroke-width="2" fill="none" d="M206.5 31h0"></path>
<path stroke="#444" stroke-width="2" fill="none" d="M260.5 31h0"></path>
<rect stroke="#3a8a3a" fill="#d7f0d7" stroke-width="1.6" x="206.5" y="20" width="54" height="22" rx="10" ry="10"></rect>
<text fill="#143a14" font-family="monospace" font-size="13" font-weight="bold" text-anchor="middle" x="233.5" y="35">THEN</text>
</g>
<path stroke="#444" stroke-width="2" fill="none" d="M260.5 31h10"></path>
<path stroke="#444" stroke-width="2" fill="none" d="M270.5 31h10"></path>
<g class="non-terminal ">
<path stroke="#444" stroke-width="2" fill="none" d="M280.5 31h0"></path>
<path stroke="#444" stroke-width="2" fill="none" d="M343 31h0"></path>
<rect stroke="#3a5a9a" fill="#e3ecfb" stroke-width="1.6" x="280.5" y="20" width="62.5" height="22"></rect>
<a xlink:href="#value"><text fill="#142a5a" font-family="monospace" font-size="13" font-weight="bold" text-anchor="middle" x="311.75" y="35">value</text>
</a>
</g>
<path stroke="#444" stroke-width="2" fill="none" d="M343 31h10"></path>
<path stroke="#444" stroke-width="2" fill="none" d="M353 31h10"></path>
<g class="non-terminal ">
<path stroke="#444" stroke-width="2" fill="none" d="M363 31h0"></path>
<path stroke="#444" stroke-width="2" fill="none" d="M604 31h0"></path>
<rect stroke="#3a5a9a" fill="#e3ecfb" stroke-width="1.6" x="363" y="20" width="241" height="22"></rect>
<a xlink:href="#case_when_list_simple_more"><text fill="#142a5a" font-family="monospace" font-size="13" font-weight="bold" text-anchor="middle" x="483.5" y="35">case&#95;when&#95;list&#95;simple&#95;more</text>
</a>
</g>
</g>
<path stroke="#444" stroke-width="2" fill="none" d="M604 31h10"></path>
<path stroke="#444" stroke-width="2" fill="none" d="M 614 31 h 20 m -10 -10 v 20 m 10 -20 v 20"></path>
</g>
<style>
svg.railroad-diagram { background: transparent; }
svg.railroad-diagram path { stroke-width: 2; stroke: #444; fill: none; }
svg.railroad-diagram text { font: bold 13px ui-monospace, Menlo, Consolas, monospace; text-anchor: middle; }
svg.railroad-diagram text.comment { font: italic 12px ui-monospace, Menlo, Consolas, monospace; }
svg.railroad-diagram rect { stroke-width: 1.6px; stroke: #3a8a3a; fill: #d7f0d7; }
svg.railroad-diagram g.terminal text { fill: #143a14; }
svg.railroad-diagram g.non-terminal rect { stroke: #3a5a9a; fill: #e3ecfb; }
svg.railroad-diagram g.non-terminal text { fill: #142a5a; }
svg.railroad-diagram g.terminal.leaf rect { stroke: #b8862b; fill: #fbeede; stroke-dasharray: 4 2; }
svg.railroad-diagram g.terminal.leaf text { fill: #5a3d05; font-style: italic; }
svg.railroad-diagram a:hover g.non-terminal rect { fill: #cfe0fb; }
</style>
</svg>
