<svg class="railroad" xmlns="http://www.w3.org/2000/svg" xmlns:xlink="http://www.w3.org/1999/xlink" width="518" height="62" viewBox="0 0 518 62"><g class="terminator"><circle cx="26" cy="31" r="5"/></g><path class="rail" d="M31 31 H40"/><g class="terminal"><rect x="40" y="20" width="49.2" height="22" rx="11" ry="11"/><text x="64.6" y="35">CAST</text></g><path class="rail" d="M89.2 31 H101.2"/><g class="terminal"><rect x="101.2" y="20" width="32" height="22" rx="11" ry="11"/><text x="117.2" y="35">(</text></g><path class="rail" d="M133.2 31 H145.2"/><a xlink:href="#value" href="#value"><g class="nonterminal"><rect x="145.2" y="20" width="56.5" height="22"/><text x="173.45" y="35">value</text></g></a><path class="rail" d="M201.7 31 H213.7"/><a xlink:href="#cast_separator" href="#cast_separator"><g class="nonterminal"><rect x="213.7" y="20" width="122.2" height="22"/><text x="274.8" y="35">cast_separator</text></g></a><path class="rail" d="M335.9 31 H347.9"/><a xlink:href="#cast_type" href="#cast_type"><g class="nonterminal"><rect x="347.9" y="20" width="85.7" height="22"/><text x="390.75" y="35">cast_type</text></g></a><path class="rail" d="M433.59999999999997 31 H445.59999999999997"/><g class="terminal"><rect x="445.59999999999997" y="20" width="32" height="22" rx="11" ry="11"/><text x="461.59999999999997" y="35">)</text></g><path class="rail" d="M477.59999999999997 31 H486.59999999999997"/><g class="terminator"><circle cx="491.59999999999997" cy="31" r="5"/></g></svg>