<svg class="railroad" xmlns="http://www.w3.org/2000/svg" xmlns:xlink="http://www.w3.org/1999/xlink" width="155" height="96" viewBox="0 0 155 96"><g class="terminator"><circle cx="26" cy="31" r="5"/></g><path class="rail" d="M31 31 H40"/><path class="rail" d="M40 31 H60"/><g class="terminal"><rect x="60" y="20" width="34.6" height="22" rx="11" ry="11"/><text x="77.3" y="35">AS</text></g><path class="rail" d="M94.6 31 H114.6"/><path class="rail" d="M40 31 A10 10 0 0 1 50 41"/><path class="rail" d="M50 41 V55"/><path class="rail" d="M50 55 A10 10 0 0 0 60 65"/><g class="terminal"><rect x="60" y="54" width="32" height="22" rx="11" ry="11"/><text x="76" y="69">,</text></g><path class="rail" d="M92 65 H94.6"/><path class="rail" d="M94.6 65 A10 10 0 0 0 104.6 55"/><path class="rail" d="M104.6 55 V41"/><path class="rail" d="M104.6 41 A10 10 0 0 1 114.6 31"/><path class="rail" d="M114.6 31 H123.6"/><g class="terminator"><circle cx="128.6" cy="31" r="5"/></g></svg>