<svg class="railroad" xmlns="http://www.w3.org/2000/svg" xmlns:xlink="http://www.w3.org/1999/xlink" width="458" height="96" viewBox="0 0 458 96"><g class="terminator"><circle cx="26" cy="31" r="5"/></g><path class="rail" d="M31 31 H40"/><path class="rail" d="M40 31 H60"/><a xlink:href="#type_keyword" href="#type_keyword"><g class="nonterminal"><rect x="60" y="20" width="107.6" height="22"/><text x="113.8" y="35">type_keyword</text></g></a><path class="rail" d="M167.6 31 H179.6"/><g class="terminal"><rect x="179.6" y="20" width="32" height="22" rx="11" ry="11"/><text x="195.6" y="35">(</text></g><path class="rail" d="M211.6 31 H223.6"/><g class="leaf"><rect x="223.6" y="20" width="129.5" height="22" rx="11" ry="11"/><text x="288.35" y="35">integer_literal</text></g><path class="rail" d="M353.1 31 H365.1"/><g class="terminal"><rect x="365.1" y="20" width="32" height="22" rx="11" ry="11"/><text x="381.1" y="35">)</text></g><path class="rail" d="M397.1 31 H417.1"/><path class="rail" d="M40 31 A10 10 0 0 1 50 41"/><path class="rail" d="M50 41 V55"/><path class="rail" d="M50 55 A10 10 0 0 0 60 65"/><a xlink:href="#type_keyword" href="#type_keyword"><g class="nonterminal"><rect x="60" y="54" width="107.6" height="22"/><text x="113.8" y="69">type_keyword</text></g></a><path class="rail" d="M167.6 65 H397.1"/><path class="rail" d="M397.1 65 A10 10 0 0 0 407.1 55"/><path class="rail" d="M407.1 55 V41"/><path class="rail" d="M407.1 41 A10 10 0 0 1 417.1 31"/><path class="rail" d="M417.1 31 H426.1"/><g class="terminator"><circle cx="431.1" cy="31" r="5"/></g></svg>