<svg class="railroad-diagram" width="157" height="212" viewBox="0 0 157 212" xmlns="http://www.w3.org/2000/svg" xmlns:xlink="http://www.w3.org/1999/xlink">
<g transform="translate(.5 .5)">
<g>
<path d="M20 21v20m10 -20v20m-10 -10h20"></path>
</g>
<g>
<path d="M40 31h0"></path>
<path d="M117 31h0"></path>
<path d="M40 31h20"></path>
<g class="terminal ">
<path d="M60 31h0"></path>
<path d="M97 31h0"></path>
<rect x="60" y="20" width="37" height="22" rx="10" ry="10"></rect>
<text x="78.5" y="35">&#60;=</text>
</g>
<path d="M97 31h20"></path>
<path d="M40 31a10 10 0 0 1 10 10v10a10 10 0 0 0 10 10"></path>
<g class="terminal ">
<path d="M60 61h0"></path>
<path d="M97 61h0"></path>
<rect x="60" y="50" width="37" height="22" rx="10" ry="10"></rect>
<text x="78.5" y="65">>=</text>
</g>
<path d="M97 61a10 10 0 0 0 10 -10v-10a10 10 0 0 1 10 -10"></path>
<path d="M40 31a10 10 0 0 1 10 10v40a10 10 0 0 0 10 10"></path>
<g class="terminal ">
<path d="M60 91h0"></path>
<path d="M97 91h0"></path>
<rect x="60" y="80" width="37" height="22" rx="10" ry="10"></rect>
<text x="78.5" y="95">&#60;></text>
</g>
<path d="M97 91a10 10 0 0 0 10 -10v-40a10 10 0 0 1 10 -10"></path>
<path d="M40 31a10 10 0 0 1 10 10v70a10 10 0 0 0 10 10"></path>
<g class="terminal ">
<path d="M60 121h0"></path>
<path d="M97 121h0"></path>
<rect x="60" y="110" width="37" height="22" rx="10" ry="10"></rect>
<text x="78.5" y="125">!=</text>
</g>
<path d="M97 121a10 10 0 0 0 10 -10v-70a10 10 0 0 1 10 -10"></path>
<path d="M40 31a10 10 0 0 1 10 10v100a10 10 0 0 0 10 10"></path>
<g class="terminal ">
<path d="M60 151h4.25"></path>
<path d="M92.75 151h4.25"></path>
<rect x="64.25" y="140" width="28.5" height="22" rx="10" ry="10"></rect>
<text x="78.5" y="155">&#60;</text>
</g>
<path d="M97 151a10 10 0 0 0 10 -10v-100a10 10 0 0 1 10 -10"></path>
<path d="M40 31a10 10 0 0 1 10 10v130a10 10 0 0 0 10 10"></path>
<g class="terminal ">
<path d="M60 181h4.25"></path>
<path d="M92.75 181h4.25"></path>
<rect x="64.25" y="170" width="28.5" height="22" rx="10" ry="10"></rect>
<text x="78.5" y="185">></text>
</g>
<path d="M97 181a10 10 0 0 0 10 -10v-130a10 10 0 0 1 10 -10"></path>
</g>
<path d="M 117 31 h 20 m -10 -10 v 20 m 10 -20 v 20"></path>
</g>
<style>
svg.railroad-diagram { background: transparent; }
svg.railroad-diagram path { stroke-width: 2; stroke: #444; fill: none; }
svg.railroad-diagram text { font: bold 13px ui-monospace, Menlo, Consolas, monospace; text-anchor: middle; }
svg.railroad-diagram text.comment { font: italic 12px ui-monospace, Menlo, Consolas, monospace; }
svg.railroad-diagram rect { stroke-width: 1.6px; stroke: #3a8a3a; fill: #d7f0d7; }
svg.railroad-diagram g.terminal text { fill: #143a14; }
svg.railroad-diagram g.non-terminal rect { stroke: #3a5a9a; fill: #e3ecfb; }
svg.railroad-diagram g.non-terminal text { fill: #142a5a; }
svg.railroad-diagram g.terminal.leaf rect { stroke: #b8862b; fill: #fbeede; stroke-dasharray: 4 2; }
svg.railroad-diagram g.terminal.leaf text { fill: #5a3d05; font-style: italic; }
svg.railroad-diagram a:hover g.non-terminal rect { fill: #cfe0fb; }
</style>
</svg>
