<svg class="railroad" xmlns="http://www.w3.org/2000/svg" xmlns:xlink="http://www.w3.org/1999/xlink" width="155" height="232" viewBox="0 0 155 232"><g class="terminator"><circle cx="26" cy="31" r="5"/></g><path class="rail" d="M31 31 H40"/><path class="rail" d="M40 31 H60"/><g class="terminal"><rect x="60" y="20" width="34.6" height="22" rx="11" ry="11"/><text x="77.3" y="35">&lt;=</text></g><path class="rail" d="M94.6 31 H114.6"/><path class="rail" d="M40 31 A10 10 0 0 1 50 41"/><path class="rail" d="M50 41 V55"/><path class="rail" d="M50 55 A10 10 0 0 0 60 65"/><g class="terminal"><rect x="60" y="54" width="34.6" height="22" rx="11" ry="11"/><text x="77.3" y="69">&gt;=</text></g><path class="rail" d="M94.6 65 A10 10 0 0 0 104.6 55"/><path class="rail" d="M104.6 55 V41"/><path class="rail" d="M104.6 41 A10 10 0 0 1 114.6 31"/><path class="rail" d="M40 31 A10 10 0 0 1 50 41"/><path class="rail" d="M50 41 V89"/><path class="rail" d="M50 89 A10 10 0 0 0 60 99"/><g class="terminal"><rect x="60" y="88" width="34.6" height="22" rx="11" ry="11"/><text x="77.3" y="103">&lt;&gt;</text></g><path class="rail" d="M94.6 99 A10 10 0 0 0 104.6 89"/><path class="rail" d="M104.6 89 V41"/><path class="rail" d="M104.6 41 A10 10 0 0 1 114.6 31"/><path class="rail" d="M40 31 A10 10 0 0 1 50 41"/><path class="rail" d="M50 41 V123"/><path class="rail" d="M50 123 A10 10 0 0 0 60 133"/><g class="terminal"><rect x="60" y="122" width="34.6" height="22" rx="11" ry="11"/><text x="77.3" y="137">!=</text></g><path class="rail" d="M94.6 133 A10 10 0 0 0 104.6 123"/><path class="rail" d="M104.6 123 V41"/><path class="rail" d="M104.6 41 A10 10 0 0 1 114.6 31"/><path class="rail" d="M40 31 A10 10 0 0 1 50 41"/><path class="rail" d="M50 41 V157"/><path class="rail" d="M50 157 A10 10 0 0 0 60 167"/><g class="terminal"><rect x="60" y="156" width="32" height="22" rx="11" ry="11"/><text x="76" y="171">&lt;</text></g><path class="rail" d="M92 167 H94.6"/><path class="rail" d="M94.6 167 A10 10 0 0 0 104.6 157"/><path class="rail" d="M104.6 157 V41"/><path class="rail" d="M104.6 41 A10 10 0 0 1 114.6 31"/><path class="rail" d="M40 31 A10 10 0 0 1 50 41"/><path class="rail" d="M50 41 V191"/><path class="rail" d="M50 191 A10 10 0 0 0 60 201"/><g class="terminal"><rect x="60" y="190" width="32" height="22" rx="11" ry="11"/><text x="76" y="205">&gt;</text></g><path class="rail" d="M92 201 H94.6"/><path class="rail" d="M94.6 201 A10 10 0 0 0 104.6 191"/><path class="rail" d="M104.6 191 V41"/><path class="rail" d="M104.6 41 A10 10 0 0 1 114.6 31"/><path class="rail" d="M114.6 31 H123.6"/><g class="terminator"><circle cx="128.6" cy="31" r="5"/></g></svg>