<svg class="railroad" xmlns="http://www.w3.org/2000/svg" xmlns:xlink="http://www.w3.org/1999/xlink" width="177" height="96" viewBox="0 0 177 96"><g class="terminator"><circle cx="26" cy="31" r="5"/></g><path class="rail" d="M31 31 H40"/><path class="rail" d="M40 31 H60"/><g class="terminal"><rect x="60" y="20" width="32" height="22" rx="11" ry="11"/><text x="76" y="35">*</text></g><path class="rail" d="M92 31 H116.5"/><path class="rail" d="M116.5 31 H136.5"/><path class="rail" d="M40 31 A10 10 0 0 1 50 41"/><path class="rail" d="M50 41 V55"/><path class="rail" d="M50 55 A10 10 0 0 0 60 65"/><a xlink:href="#value" href="#value"><g class="nonterminal"><rect x="60" y="54" width="56.5" height="22"/><text x="88.25" y="69">value</text></g></a><path class="rail" d="M116.5 65 A10 10 0 0 0 126.5 55"/><path class="rail" d="M126.5 55 V41"/><path class="rail" d="M126.5 41 A10 10 0 0 1 136.5 31"/><path class="rail" d="M136.5 31 H145.5"/><g class="terminator"><circle cx="150.5" cy="31" r="5"/></g></svg>