<svg class="railroad" xmlns="http://www.w3.org/2000/svg" xmlns:xlink="http://www.w3.org/1999/xlink" width="223" height="96" viewBox="0 0 223 96"><g class="terminator"><circle cx="26" cy="31" r="5"/></g><path class="rail" d="M31 31 H40"/><path class="rail" d="M40 31 H50"/><a xlink:href="#column_or_star" href="#column_or_star"><g class="nonterminal"><rect x="50" y="20" width="122.2" height="22"/><text x="111.1" y="35">column_or_star</text></g></a><path class="rail" d="M172.2 31 H182.2"/><path class="rail" d="M172.2 31 A10 10 0 0 0 182.2 41"/><path class="rail" d="M182.2 41 V55"/><path class="rail" d="M182.2 55 A10 10 0 0 0 172.2 65"/><path class="rail" d="M172.2 65 H127.19999999999999"/><g class="terminal"><rect x="96" y="54" width="32" height="22" rx="11" ry="11"/><text x="112" y="69">,</text></g><path class="rail" d="M50 65 H96"/><path class="arrow" d="M116.1 61 L106.1 65 L116.1 69 Z"/><path class="rail" d="M50 65 A10 10 0 0 0 40 55"/><path class="rail" d="M40 55 V41"/><path class="rail" d="M40 41 A10 10 0 0 0 50 31"/><path class="rail" d="M182.2 31 H191.2"/><g class="terminator"><circle cx="196.2" cy="31" r="5"/></g></svg>