<svg class="railroad-diagram" width="259" height="92" viewBox="0 0 259 92" xmlns="http://www.w3.org/2000/svg" xmlns:xlink="http://www.w3.org/1999/xlink">
<g transform="translate(.5 .5)">
<g>
<path d="M20 21v20m10 -20v20m-10 -10h20"></path>
</g>
<path d="M40 31h10"></path>
<g>
<path d="M50 31h0"></path>
<path d="M209 31h0"></path>
<path d="M50 31h10"></path>
<g class="non-terminal ">
<path d="M60 31h0"></path>
<path d="M199 31h0"></path>
<rect x="60" y="20" width="139" height="22"></rect>
<a xlink:href="#column_or_star"><text x="129.5" y="35">column&#95;or&#95;star</text>
</a>
</g>
<path d="M199 31h10"></path>
<path d="M60 31a10 10 0 0 0 -10 10v10a10 10 0 0 0 10 10"></path>
<g class="terminal ">
<path d="M60 61h55.25"></path>
<path d="M143.75 61h55.25"></path>
<rect x="115.25" y="50" width="28.5" height="22" rx="10" ry="10"></rect>
<text x="129.5" y="65">,</text>
</g>
<path d="M199 61a10 10 0 0 0 10 -10v-10a10 10 0 0 0 -10 -10"></path>
</g>
<path d="M209 31h10"></path>
<path d="M 219 31 h 20 m -10 -10 v 20 m 10 -20 v 20"></path>
</g>
<style>
svg.railroad-diagram { background: transparent; }
svg.railroad-diagram path { stroke-width: 2; stroke: #444; fill: none; }
svg.railroad-diagram text { font: bold 13px ui-monospace, Menlo, Consolas, monospace; text-anchor: middle; }
svg.railroad-diagram text.comment { font: italic 12px ui-monospace, Menlo, Consolas, monospace; }
svg.railroad-diagram rect { stroke-width: 1.6px; stroke: #3a8a3a; fill: #d7f0d7; }
svg.railroad-diagram g.terminal text { fill: #143a14; }
svg.railroad-diagram g.non-terminal rect { stroke: #3a5a9a; fill: #e3ecfb; }
svg.railroad-diagram g.non-terminal text { fill: #142a5a; }
svg.railroad-diagram g.terminal.leaf rect { stroke: #b8862b; fill: #fbeede; stroke-dasharray: 4 2; }
svg.railroad-diagram g.terminal.leaf text { fill: #5a3d05; font-style: italic; }
svg.railroad-diagram a:hover g.non-terminal rect { fill: #cfe0fb; }
</style>
</svg>
