<svg class="railroad" xmlns="http://www.w3.org/2000/svg" xmlns:xlink="http://www.w3.org/1999/xlink" width="300" height="108" viewBox="0 0 300 108"><g class="terminator"><circle cx="26" cy="20" r="5"/></g><path class="rail" d="M31 20 H40"/><path class="rail" d="M40 20 H60"/><path class="rail" d="M60 20 H239.6"/><path class="rail" d="M239.6 20 H259.6"/><path class="rail" d="M40 20 A10 10 0 0 1 50 30"/><path class="rail" d="M50 30 V33"/><path class="rail" d="M50 33 A10 10 0 0 0 60 43"/><path class="rail" d="M60 43 H80"/><g class="terminal"><rect x="80" y="32" width="34.6" height="22" rx="11" ry="11"/><text x="97.3" y="47">AS</text></g><path class="rail" d="M114.6 43 H126.6"/><g class="leaf"><rect x="126.6" y="32" width="93" height="22" rx="11" ry="11"/><text x="173.1" y="47">identifier</text></g><path class="rail" d="M219.6 43 H239.6"/><path class="rail" d="M60 43 A10 10 0 0 1 70 53"/><path class="rail" d="M70 53 V67"/><path class="rail" d="M70 67 A10 10 0 0 0 80 77"/><g class="leaf"><rect x="80" y="66" width="93" height="22" rx="11" ry="11"/><text x="126.5" y="81">identifier</text></g><path class="rail" d="M173 77 H219.6"/><path class="rail" d="M219.6 77 A10 10 0 0 0 229.6 67"/><path class="rail" d="M229.6 67 V53"/><path class="rail" d="M229.6 53 A10 10 0 0 1 239.6 43"/><path class="rail" d="M239.6 43 A10 10 0 0 0 249.6 33"/><path class="rail" d="M249.6 33 V30"/><path class="rail" d="M249.6 30 A10 10 0 0 1 259.6 20"/><path class="rail" d="M259.6 20 H268.6"/><g class="terminator"><circle cx="273.6" cy="20" r="5"/></g></svg>