<svg class="railroad" xmlns="http://www.w3.org/2000/svg" xmlns:xlink="http://www.w3.org/1999/xlink" width="224" height="108" viewBox="0 0 224 108"><g class="terminator"><circle cx="26" cy="20" r="5"/></g><path class="rail" d="M31 20 H40"/><path class="rail" d="M40 20 H60"/><path class="rail" d="M60 20 H163.8"/><path class="rail" d="M163.8 20 H183.8"/><path class="rail" d="M40 20 A10 10 0 0 1 50 30"/><path class="rail" d="M50 30 V33"/><path class="rail" d="M50 33 A10 10 0 0 0 60 43"/><path class="rail" d="M60 43 H80"/><g class="terminal"><rect x="80" y="32" width="63.8" height="22" rx="11" ry="11"/><text x="111.9" y="47">UNIQUE</text></g><path class="rail" d="M143.8 43 H163.8"/><path class="rail" d="M60 43 A10 10 0 0 1 70 53"/><path class="rail" d="M70 53 V67"/><path class="rail" d="M70 67 A10 10 0 0 0 80 77"/><g class="terminal"><rect x="80" y="66" width="63.8" height="22" rx="11" ry="11"/><text x="111.9" y="81">NOCASE</text></g><path class="rail" d="M143.8 77 A10 10 0 0 0 153.8 67"/><path class="rail" d="M153.8 67 V53"/><path class="rail" d="M153.8 53 A10 10 0 0 1 163.8 43"/><path class="rail" d="M163.8 43 A10 10 0 0 0 173.8 33"/><path class="rail" d="M173.8 33 V30"/><path class="rail" d="M173.8 30 A10 10 0 0 1 183.8 20"/><path class="rail" d="M183.8 20 H192.8"/><g class="terminator"><circle cx="197.8" cy="20" r="5"/></g></svg>