<svg class="railroad" xmlns="http://www.w3.org/2000/svg" xmlns:xlink="http://www.w3.org/1999/xlink" width="877" height="62" viewBox="0 0 877 62"><g class="terminator"><circle cx="26" cy="31" r="5"/></g><path class="rail" d="M31 31 H40"/><g class="terminal"><rect x="40" y="20" width="63.8" height="22" rx="11" ry="11"/><text x="71.9" y="35">CREATE</text></g><path class="rail" d="M103.8 31 H115.8"/><a xlink:href="#create_index_modifier" href="#create_index_modifier"><g class="nonterminal"><rect x="115.8" y="20" width="173.29999999999998" height="22"/><text x="202.45" y="35">create_index_modifier</text></g></a><path class="rail" d="M289.09999999999997 31 H301.09999999999997"/><g class="terminal"><rect x="301.09999999999997" y="20" width="56.5" height="22" rx="11" ry="11"/><text x="329.34999999999997" y="35">INDEX</text></g><path class="rail" d="M357.59999999999997 31 H369.59999999999997"/><g class="leaf"><rect x="369.59999999999997" y="20" width="93" height="22" rx="11" ry="11"/><text x="416.09999999999997" y="35">identifier</text></g><path class="rail" d="M462.59999999999997 31 H474.59999999999997"/><g class="terminal"><rect x="474.59999999999997" y="20" width="34.6" height="22" rx="11" ry="11"/><text x="491.9" y="35">ON</text></g><path class="rail" d="M509.2 31 H521.2"/><g class="leaf"><rect x="521.2" y="20" width="93" height="22" rx="11" ry="11"/><text x="567.7" y="35">identifier</text></g><path class="rail" d="M614.2 31 H626.2"/><g class="terminal"><rect x="626.2" y="20" width="32" height="22" rx="11" ry="11"/><text x="642.2" y="35">(</text></g><path class="rail" d="M658.2 31 H670.2"/><a xlink:href="#index_col_list" href="#index_col_list"><g class="nonterminal"><rect x="670.2" y="20" width="122.2" height="22"/><text x="731.3000000000001" y="35">index_col_list</text></g></a><path class="rail" d="M792.4000000000001 31 H804.4000000000001"/><g class="terminal"><rect x="804.4000000000001" y="20" width="32" height="22" rx="11" ry="11"/><text x="820.4000000000001" y="35">)</text></g><path class="rail" d="M836.4000000000001 31 H845.4000000000001"/><g class="terminator"><circle cx="850.4000000000001" cy="31" r="5"/></g></svg>