<svg class="railroad" xmlns="http://www.w3.org/2000/svg" xmlns:xlink="http://www.w3.org/1999/xlink" width="239" height="108" viewBox="0 0 239 108"><g class="terminator"><circle cx="26" cy="20" r="5"/></g><path class="rail" d="M31 20 H40"/><path class="rail" d="M40 20 H60"/><path class="rail" d="M60 20 H178.4"/><path class="rail" d="M178.4 20 H198.4"/><path class="rail" d="M40 20 A10 10 0 0 1 50 30"/><path class="rail" d="M50 30 V33"/><path class="rail" d="M50 33 A10 10 0 0 0 60 43"/><path class="rail" d="M60 43 H80"/><g class="terminal"><rect x="80" y="32" width="78.4" height="22" rx="11" ry="11"/><text x="119.2" y="47">DISTINCT</text></g><path class="rail" d="M158.4 43 H178.4"/><path class="rail" d="M60 43 A10 10 0 0 1 70 53"/><path class="rail" d="M70 53 V67"/><path class="rail" d="M70 67 A10 10 0 0 0 80 77"/><g class="terminal"><rect x="80" y="66" width="41.9" height="22" rx="11" ry="11"/><text x="100.95" y="81">ALL</text></g><path class="rail" d="M121.9 77 H158.4"/><path class="rail" d="M158.4 77 A10 10 0 0 0 168.4 67"/><path class="rail" d="M168.4 67 V53"/><path class="rail" d="M168.4 53 A10 10 0 0 1 178.4 43"/><path class="rail" d="M178.4 43 A10 10 0 0 0 188.4 33"/><path class="rail" d="M188.4 33 V30"/><path class="rail" d="M188.4 30 A10 10 0 0 1 198.4 20"/><path class="rail" d="M198.4 20 H207.4"/><g class="terminator"><circle cx="212.4" cy="20" r="5"/></g></svg>