<svg class="railroad" xmlns="http://www.w3.org/2000/svg" xmlns:xlink="http://www.w3.org/1999/xlink" width="492" height="96" viewBox="0 0 492 96"><g class="terminator"><circle cx="26" cy="31" r="5"/></g><path class="rail" d="M31 31 H40"/><path class="rail" d="M40 31 H60"/><g class="terminal"><rect x="60" y="20" width="49.2" height="22" rx="11" ry="11"/><text x="84.6" y="35">DROP</text></g><path class="rail" d="M109.2 31 H121.2"/><g class="terminal"><rect x="121.2" y="20" width="56.5" height="22" rx="11" ry="11"/><text x="149.45" y="35">INDEX</text></g><path class="rail" d="M177.7 31 H189.7"/><g class="leaf"><rect x="189.7" y="20" width="93" height="22" rx="11" ry="11"/><text x="236.2" y="35">identifier</text></g><path class="rail" d="M282.7 31 H294.7"/><g class="terminal"><rect x="294.7" y="20" width="32" height="22" rx="11" ry="11"/><text x="310.7" y="35">.</text></g><path class="rail" d="M326.7 31 H338.7"/><g class="leaf"><rect x="338.7" y="20" width="93" height="22" rx="11" ry="11"/><text x="385.2" y="35">identifier</text></g><path class="rail" d="M431.7 31 H451.7"/><path class="rail" d="M40 31 A10 10 0 0 1 50 41"/><path class="rail" d="M50 41 V55"/><path class="rail" d="M50 55 A10 10 0 0 0 60 65"/><g class="terminal"><rect x="60" y="54" width="49.2" height="22" rx="11" ry="11"/><text x="84.6" y="69">DROP</text></g><path class="rail" d="M109.2 65 H121.2"/><g class="terminal"><rect x="121.2" y="54" width="56.5" height="22" rx="11" ry="11"/><text x="149.45" y="69">INDEX</text></g><path class="rail" d="M177.7 65 H189.7"/><g class="leaf"><rect x="189.7" y="54" width="93" height="22" rx="11" ry="11"/><text x="236.2" y="69">identifier</text></g><path class="rail" d="M282.7 65 H431.7"/><path class="rail" d="M431.7 65 A10 10 0 0 0 441.7 55"/><path class="rail" d="M441.7 55 V41"/><path class="rail" d="M441.7 41 A10 10 0 0 1 451.7 31"/><path class="rail" d="M451.7 31 H460.7"/><g class="terminator"><circle cx="465.7" cy="31" r="5"/></g></svg>