<svg class="railroad-diagram" width="555" height="92" viewBox="0 0 555 92" xmlns="http://www.w3.org/2000/svg" xmlns:xlink="http://www.w3.org/1999/xlink">
<g transform="translate(.5 .5)">
<g>
<path stroke="#444" stroke-width="2" fill="none" d="M20 21v20m10 -20v20m-10 -10h20"></path>
</g>
<g>
<path stroke="#444" stroke-width="2" fill="none" d="M40 31h0"></path>
<path stroke="#444" stroke-width="2" fill="none" d="M515 31h0"></path>
<path stroke="#444" stroke-width="2" fill="none" d="M40 31h20"></path>
<g>
<path stroke="#444" stroke-width="2" fill="none" d="M60 31h0"></path>
<path stroke="#444" stroke-width="2" fill="none" d="M495 31h0"></path>
<g class="terminal ">
<path stroke="#444" stroke-width="2" fill="none" d="M60 31h0"></path>
<path stroke="#444" stroke-width="2" fill="none" d="M114 31h0"></path>
<rect stroke="#3a8a3a" fill="#d7f0d7" stroke-width="1.6" x="60" y="20" width="54" height="22" rx="10" ry="10"></rect>
<text fill="#143a14" font-family="monospace" font-size="13" font-weight="bold" text-anchor="middle" x="87" y="35">DROP</text>
</g>
<path stroke="#444" stroke-width="2" fill="none" d="M114 31h10"></path>
<path stroke="#444" stroke-width="2" fill="none" d="M124 31h10"></path>
<g class="terminal ">
<path stroke="#444" stroke-width="2" fill="none" d="M134 31h0"></path>
<path stroke="#444" stroke-width="2" fill="none" d="M196.5 31h0"></path>
<rect stroke="#3a8a3a" fill="#d7f0d7" stroke-width="1.6" x="134" y="20" width="62.5" height="22" rx="10" ry="10"></rect>
<text fill="#143a14" font-family="monospace" font-size="13" font-weight="bold" text-anchor="middle" x="165.25" y="35">INDEX</text>
</g>
<path stroke="#444" stroke-width="2" fill="none" d="M196.5 31h10"></path>
<path stroke="#444" stroke-width="2" fill="none" d="M206.5 31h10"></path>
<g class="terminal leaf">
<path stroke="#444" stroke-width="2" fill="none" d="M216.5 31h0"></path>
<path stroke="#444" stroke-width="2" fill="none" d="M321.5 31h0"></path>
<rect stroke="#b8862b" fill="#fbeede" stroke-dasharray="4 2" stroke-width="1.6" x="216.5" y="20" width="105" height="22" rx="10" ry="10"></rect>
<text fill="#5a3d05" font-family="monospace" font-size="13" font-weight="bold" text-anchor="middle" font-style="italic" x="269" y="35">identifier</text>
</g>
<path stroke="#444" stroke-width="2" fill="none" d="M321.5 31h10"></path>
<path stroke="#444" stroke-width="2" fill="none" d="M331.5 31h10"></path>
<g class="terminal ">
<path stroke="#444" stroke-width="2" fill="none" d="M341.5 31h0"></path>
<path stroke="#444" stroke-width="2" fill="none" d="M370 31h0"></path>
<rect stroke="#3a8a3a" fill="#d7f0d7" stroke-width="1.6" x="341.5" y="20" width="28.5" height="22" rx="10" ry="10"></rect>
<text fill="#143a14" font-family="monospace" font-size="13" font-weight="bold" text-anchor="middle" x="355.75" y="35">.</text>
</g>
<path stroke="#444" stroke-width="2" fill="none" d="M370 31h10"></path>
<path stroke="#444" stroke-width="2" fill="none" d="M380 31h10"></path>
<g class="terminal leaf">
<path stroke="#444" stroke-width="2" fill="none" d="M390 31h0"></path>
<path stroke="#444" stroke-width="2" fill="none" d="M495 31h0"></path>
<rect stroke="#b8862b" fill="#fbeede" stroke-dasharray="4 2" stroke-width="1.6" x="390" y="20" width="105" height="22" rx="10" ry="10"></rect>
<text fill="#5a3d05" font-family="monospace" font-size="13" font-weight="bold" text-anchor="middle" font-style="italic" x="442.5" y="35">identifier</text>
</g>
</g>
<path stroke="#444" stroke-width="2" fill="none" d="M495 31h20"></path>
<path stroke="#444" stroke-width="2" fill="none" d="M40 31a10 10 0 0 1 10 10v10a10 10 0 0 0 10 10"></path>
<g>
<path stroke="#444" stroke-width="2" fill="none" d="M60 61h86.75"></path>
<path stroke="#444" stroke-width="2" fill="none" d="M408.25 61h86.75"></path>
<g class="terminal ">
<path stroke="#444" stroke-width="2" fill="none" d="M146.75 61h0"></path>
<path stroke="#444" stroke-width="2" fill="none" d="M200.75 61h0"></path>
<rect stroke="#3a8a3a" fill="#d7f0d7" stroke-width="1.6" x="146.75" y="50" width="54" height="22" rx="10" ry="10"></rect>
<text fill="#143a14" font-family="monospace" font-size="13" font-weight="bold" text-anchor="middle" x="173.75" y="65">DROP</text>
</g>
<path stroke="#444" stroke-width="2" fill="none" d="M200.75 61h10"></path>
<path stroke="#444" stroke-width="2" fill="none" d="M210.75 61h10"></path>
<g class="terminal ">
<path stroke="#444" stroke-width="2" fill="none" d="M220.75 61h0"></path>
<path stroke="#444" stroke-width="2" fill="none" d="M283.25 61h0"></path>
<rect stroke="#3a8a3a" fill="#d7f0d7" stroke-width="1.6" x="220.75" y="50" width="62.5" height="22" rx="10" ry="10"></rect>
<text fill="#143a14" font-family="monospace" font-size="13" font-weight="bold" text-anchor="middle" x="252" y="65">INDEX</text>
</g>
<path stroke="#444" stroke-width="2" fill="none" d="M283.25 61h10"></path>
<path stroke="#444" stroke-width="2" fill="none" d="M293.25 61h10"></path>
<g class="terminal leaf">
<path stroke="#444" stroke-width="2" fill="none" d="M303.25 61h0"></path>
<path stroke="#444" stroke-width="2" fill="none" d="M408.25 61h0"></path>
<rect stroke="#b8862b" fill="#fbeede" stroke-dasharray="4 2" stroke-width="1.6" x="303.25" y="50" width="105" height="22" rx="10" ry="10"></rect>
<text fill="#5a3d05" font-family="monospace" font-size="13" font-weight="bold" text-anchor="middle" font-style="italic" x="355.75" y="65">identifier</text>
</g>
</g>
<path stroke="#444" stroke-width="2" fill="none" d="M495 61a10 10 0 0 0 10 -10v-10a10 10 0 0 1 10 -10"></path>
</g>
<path stroke="#444" stroke-width="2" fill="none" d="M 515 31 h 20 m -10 -10 v 20 m 10 -20 v 20"></path>
</g>
<style>
svg.railroad-diagram { background: transparent; }
svg.railroad-diagram path { stroke-width: 2; stroke: #444; fill: none; }
svg.railroad-diagram text { font: bold 13px ui-monospace, Menlo, Consolas, monospace; text-anchor: middle; }
svg.railroad-diagram text.comment { font: italic 12px ui-monospace, Menlo, Consolas, monospace; }
svg.railroad-diagram rect { stroke-width: 1.6px; stroke: #3a8a3a; fill: #d7f0d7; }
svg.railroad-diagram g.terminal text { fill: #143a14; }
svg.railroad-diagram g.non-terminal rect { stroke: #3a5a9a; fill: #e3ecfb; }
svg.railroad-diagram g.non-terminal text { fill: #142a5a; }
svg.railroad-diagram g.terminal.leaf rect { stroke: #b8862b; fill: #fbeede; stroke-dasharray: 4 2; }
svg.railroad-diagram g.terminal.leaf text { fill: #5a3d05; font-style: italic; }
svg.railroad-diagram a:hover g.non-terminal rect { fill: #cfe0fb; }
</style>
</svg>
