<svg class="railroad" xmlns="http://www.w3.org/2000/svg" xmlns:xlink="http://www.w3.org/1999/xlink" width="231" height="74" viewBox="0 0 231 74"><g class="terminator"><circle cx="26" cy="20" r="5"/></g><path class="rail" d="M31 20 H40"/><path class="rail" d="M40 20 H60"/><path class="rail" d="M60 20 H170.4"/><path class="rail" d="M170.4 20 H190.4"/><path class="rail" d="M40 20 A10 10 0 0 1 50 30"/><path class="rail" d="M50 30 V33"/><path class="rail" d="M50 33 A10 10 0 0 0 60 43"/><g class="terminal"><rect x="60" y="32" width="34.6" height="22" rx="11" ry="11"/><text x="77.3" y="47">IF</text></g><path class="rail" d="M94.6 43 H106.6"/><g class="terminal"><rect x="106.6" y="32" width="63.8" height="22" rx="11" ry="11"/><text x="138.5" y="47">EXISTS</text></g><path class="rail" d="M170.4 43 A10 10 0 0 0 180.4 33"/><path class="rail" d="M180.4 33 V30"/><path class="rail" d="M180.4 30 A10 10 0 0 1 190.4 20"/><path class="rail" d="M190.4 20 H199.4"/><g class="terminator"><circle cx="204.4" cy="20" r="5"/></g></svg>