<svg class="railroad" xmlns="http://www.w3.org/2000/svg" xmlns:xlink="http://www.w3.org/1999/xlink" width="206" height="368" viewBox="0 0 206 368"><g class="terminator"><circle cx="26" cy="31" r="5"/></g><path class="rail" d="M31 31 H40"/><path class="rail" d="M40 31 H60"/><g class="terminal"><rect x="60" y="20" width="49.2" height="22" rx="11" ry="11"/><text x="84.6" y="35">YEAR</text></g><path class="rail" d="M109.2 31 H145.7"/><path class="rail" d="M145.7 31 H165.7"/><path class="rail" d="M40 31 A10 10 0 0 1 50 41"/><path class="rail" d="M50 41 V55"/><path class="rail" d="M50 55 A10 10 0 0 0 60 65"/><g class="terminal"><rect x="60" y="54" width="56.5" height="22" rx="11" ry="11"/><text x="88.25" y="69">MONTH</text></g><path class="rail" d="M116.5 65 H145.7"/><path class="rail" d="M145.7 65 A10 10 0 0 0 155.7 55"/><path class="rail" d="M155.7 55 V41"/><path class="rail" d="M155.7 41 A10 10 0 0 1 165.7 31"/><path class="rail" d="M40 31 A10 10 0 0 1 50 41"/><path class="rail" d="M50 41 V89"/><path class="rail" d="M50 89 A10 10 0 0 0 60 99"/><g class="terminal"><rect x="60" y="88" width="49.2" height="22" rx="11" ry="11"/><text x="84.6" y="103">WEEK</text></g><path class="rail" d="M109.2 99 H145.7"/><path class="rail" d="M145.7 99 A10 10 0 0 0 155.7 89"/><path class="rail" d="M155.7 89 V41"/><path class="rail" d="M155.7 41 A10 10 0 0 1 165.7 31"/><path class="rail" d="M40 31 A10 10 0 0 1 50 41"/><path class="rail" d="M50 41 V123"/><path class="rail" d="M50 123 A10 10 0 0 0 60 133"/><g class="terminal"><rect x="60" y="122" width="85.7" height="22" rx="11" ry="11"/><text x="102.85" y="137">DAYOFWEEK</text></g><path class="rail" d="M145.7 133 A10 10 0 0 0 155.7 123"/><path class="rail" d="M155.7 123 V41"/><path class="rail" d="M155.7 41 A10 10 0 0 1 165.7 31"/><path class="rail" d="M40 31 A10 10 0 0 1 50 41"/><path class="rail" d="M50 41 V157"/><path class="rail" d="M50 157 A10 10 0 0 0 60 167"/><g class="terminal"><rect x="60" y="156" width="85.7" height="22" rx="11" ry="11"/><text x="102.85" y="171">DAYOFYEAR</text></g><path class="rail" d="M145.7 167 A10 10 0 0 0 155.7 157"/><path class="rail" d="M155.7 157 V41"/><path class="rail" d="M155.7 41 A10 10 0 0 1 165.7 31"/><path class="rail" d="M40 31 A10 10 0 0 1 50 41"/><path class="rail" d="M50 41 V191"/><path class="rail" d="M50 191 A10 10 0 0 0 60 201"/><g class="terminal"><rect x="60" y="190" width="41.9" height="22" rx="11" ry="11"/><text x="80.95" y="205">DAY</text></g><path class="rail" d="M101.9 201 H145.7"/><path class="rail" d="M145.7 201 A10 10 0 0 0 155.7 191"/><path class="rail" d="M155.7 191 V41"/><path class="rail" d="M155.7 41 A10 10 0 0 1 165.7 31"/><path class="rail" d="M40 31 A10 10 0 0 1 50 41"/><path class="rail" d="M50 41 V225"/><path class="rail" d="M50 225 A10 10 0 0 0 60 235"/><g class="terminal"><rect x="60" y="224" width="49.2" height="22" rx="11" ry="11"/><text x="84.6" y="239">HOUR</text></g><path class="rail" d="M109.2 235 H145.7"/><path class="rail" d="M145.7 235 A10 10 0 0 0 155.7 225"/><path class="rail" d="M155.7 225 V41"/><path class="rail" d="M155.7 41 A10 10 0 0 1 165.7 31"/><path class="rail" d="M40 31 A10 10 0 0 1 50 41"/><path class="rail" d="M50 41 V259"/><path class="rail" d="M50 259 A10 10 0 0 0 60 269"/><g class="terminal"><rect x="60" y="258" width="63.8" height="22" rx="11" ry="11"/><text x="91.9" y="273">MINUTE</text></g><path class="rail" d="M123.8 269 H145.7"/><path class="rail" d="M145.7 269 A10 10 0 0 0 155.7 259"/><path class="rail" d="M155.7 259 V41"/><path class="rail" d="M155.7 41 A10 10 0 0 1 165.7 31"/><path class="rail" d="M40 31 A10 10 0 0 1 50 41"/><path class="rail" d="M50 41 V293"/><path class="rail" d="M50 293 A10 10 0 0 0 60 303"/><g class="terminal"><rect x="60" y="292" width="63.8" height="22" rx="11" ry="11"/><text x="91.9" y="307">SECOND</text></g><path class="rail" d="M123.8 303 H145.7"/><path class="rail" d="M145.7 303 A10 10 0 0 0 155.7 293"/><path class="rail" d="M155.7 293 V41"/><path class="rail" d="M155.7 41 A10 10 0 0 1 165.7 31"/><path class="rail" d="M40 31 A10 10 0 0 1 50 41"/><path class="rail" d="M50 41 V327"/><path class="rail" d="M50 327 A10 10 0 0 0 60 337"/><g class="terminal"><rect x="60" y="326" width="71.1" height="22" rx="11" ry="11"/><text x="95.55" y="341">MSECOND</text></g><path class="rail" d="M131.1 337 H145.7"/><path class="rail" d="M145.7 337 A10 10 0 0 0 155.7 327"/><path class="rail" d="M155.7 327 V41"/><path class="rail" d="M155.7 41 A10 10 0 0 1 165.7 31"/><path class="rail" d="M165.7 31 H174.7"/><g class="terminator"><circle cx="179.7" cy="31" r="5"/></g></svg>