<svg class="railroad" xmlns="http://www.w3.org/2000/svg" xmlns:xlink="http://www.w3.org/1999/xlink" width="411" height="163" viewBox="0 0 411 163"><g class="terminator"><circle cx="26" cy="20" r="5"/></g><path class="rail" d="M31 20 H40"/><path class="rail" d="M40 20 H60"/><path class="rail" d="M60 20 H350.9"/><path class="rail" d="M350.9 20 H370.9"/><path class="rail" d="M40 20 A10 10 0 0 1 50 30"/><path class="rail" d="M50 30 V33"/><path class="rail" d="M50 33 A10 10 0 0 0 60 43"/><path class="rail" d="M60 43 H80"/><g class="terminal"><rect x="80" y="32" width="32" height="22" rx="11" ry="11"/><text x="96" y="47">*</text></g><path class="rail" d="M112 43 H330.9"/><path class="rail" d="M330.9 43 H350.9"/><path class="rail" d="M60 43 A10 10 0 0 1 70 53"/><path class="rail" d="M70 53 V67"/><path class="rail" d="M70 67 A10 10 0 0 0 80 77"/><a xlink:href="#func_arg" href="#func_arg"><g class="nonterminal"><rect x="80" y="66" width="78.4" height="22"/><text x="119.2" y="81">func_arg</text></g></a><path class="rail" d="M158.4 77 H170.4"/><path class="rail" d="M170.4 77 H190.4"/><path class="rail" d="M190.4 77 H310.9"/><path class="rail" d="M310.9 77 H330.9"/><path class="rail" d="M170.4 77 A10 10 0 0 1 180.4 87"/><path class="rail" d="M180.4 87 V90"/><path class="rail" d="M180.4 90 A10 10 0 0 0 190.4 100"/><path class="rail" d="M190.4 100 H200.4"/><g class="terminal"><rect x="200.4" y="89" width="32" height="22" rx="11" ry="11"/><text x="216.4" y="104">,</text></g><path class="rail" d="M232.4 100 H244.4"/><a xlink:href="#value" href="#value"><g class="nonterminal"><rect x="244.4" y="89" width="56.5" height="22"/><text x="272.65" y="104">value</text></g></a><path class="rail" d="M300.9 100 H310.9"/><path class="rail" d="M300.9 100 A10 10 0 0 0 310.9 110"/><path class="rail" d="M310.9 110 V123"/><path class="rail" d="M310.9 123 A10 10 0 0 0 300.9 133"/><path class="rail" d="M200.4 133 H300.9"/><path class="arrow" d="M255.65 129 L245.65 133 L255.65 137 Z"/><path class="rail" d="M200.4 133 A10 10 0 0 0 190.4 123"/><path class="rail" d="M190.4 123 V110"/><path class="rail" d="M190.4 110 A10 10 0 0 0 200.4 100"/><path class="rail" d="M310.9 100 A10 10 0 0 0 320.9 90"/><path class="rail" d="M320.9 90 V87"/><path class="rail" d="M320.9 87 A10 10 0 0 1 330.9 77"/><path class="rail" d="M330.9 77 A10 10 0 0 0 340.9 67"/><path class="rail" d="M340.9 67 V53"/><path class="rail" d="M340.9 53 A10 10 0 0 1 350.9 43"/><path class="rail" d="M350.9 43 A10 10 0 0 0 360.9 33"/><path class="rail" d="M360.9 33 V30"/><path class="rail" d="M360.9 30 A10 10 0 0 1 370.9 20"/><path class="rail" d="M370.9 20 H379.9"/><g class="terminator"><circle cx="384.9" cy="20" r="5"/></g></svg>