<svg class="railroad" xmlns="http://www.w3.org/2000/svg" xmlns:xlink="http://www.w3.org/1999/xlink" width="692" height="164" viewBox="0 0 692 164"><g class="terminator"><circle cx="26" cy="31" r="5"/></g><path class="rail" d="M31 31 H40"/><path class="rail" d="M40 31 H60"/><g class="terminal"><rect x="60" y="20" width="71.1" height="22" rx="11" ry="11"/><text x="95.55" y="35">EXTRACT</text></g><path class="rail" d="M131.1 31 H143.1"/><g class="terminal"><rect x="143.1" y="20" width="32" height="22" rx="11" ry="11"/><text x="159.1" y="35">(</text></g><path class="rail" d="M175.1 31 H187.1"/><a xlink:href="#extract_field" href="#extract_field"><g class="nonterminal"><rect x="187.1" y="20" width="114.89999999999999" height="22"/><text x="244.54999999999998" y="35">extract_field</text></g></a><path class="rail" d="M302 31 H314"/><g class="terminal"><rect x="314" y="20" width="49.2" height="22" rx="11" ry="11"/><text x="338.6" y="35">FROM</text></g><path class="rail" d="M363.2 31 H375.2"/><a xlink:href="#value" href="#value"><g class="nonterminal"><rect x="375.2" y="20" width="56.5" height="22"/><text x="403.45" y="35">value</text></g></a><path class="rail" d="M431.7 31 H443.7"/><g class="terminal"><rect x="443.7" y="20" width="32" height="22" rx="11" ry="11"/><text x="459.7" y="35">)</text></g><path class="rail" d="M475.7 31 H631.8"/><path class="rail" d="M631.8 31 H651.8"/><path class="rail" d="M40 31 A10 10 0 0 1 50 41"/><path class="rail" d="M50 41 V55"/><path class="rail" d="M50 55 A10 10 0 0 0 60 65"/><g class="terminal"><rect x="60" y="54" width="49.2" height="22" rx="11" ry="11"/><text x="84.6" y="69">TRIM</text></g><path class="rail" d="M109.2 65 H121.2"/><g class="terminal"><rect x="121.2" y="54" width="32" height="22" rx="11" ry="11"/><text x="137.2" y="69">(</text></g><path class="rail" d="M153.2 65 H165.2"/><a xlink:href="#trim_side" href="#trim_side"><g class="nonterminal"><rect x="165.2" y="54" width="85.7" height="22"/><text x="208.04999999999998" y="69">trim_side</text></g></a><path class="rail" d="M250.89999999999998 65 H262.9"/><g class="leaf"><rect x="262.9" y="54" width="122.2" height="22" rx="11" ry="11"/><text x="324" y="69">string_literal</text></g><path class="rail" d="M385.09999999999997 65 H397.09999999999997"/><a xlink:href="#trim_separator" href="#trim_separator"><g class="nonterminal"><rect x="397.09999999999997" y="54" width="122.2" height="22"/><text x="458.2" y="69">trim_separator</text></g></a><path class="rail" d="M519.3 65 H531.3"/><a xlink:href="#value" href="#value"><g class="nonterminal"><rect x="531.3" y="54" width="56.5" height="22"/><text x="559.55" y="69">value</text></g></a><path class="rail" d="M587.8 65 H599.8"/><g class="terminal"><rect x="599.8" y="54" width="32" height="22" rx="11" ry="11"/><text x="615.8" y="69">)</text></g><path class="rail" d="M631.8 65 A10 10 0 0 0 641.8 55"/><path class="rail" d="M641.8 55 V41"/><path class="rail" d="M641.8 41 A10 10 0 0 1 651.8 31"/><path class="rail" d="M40 31 A10 10 0 0 1 50 41"/><path class="rail" d="M50 41 V89"/><path class="rail" d="M50 89 A10 10 0 0 0 60 99"/><g class="terminal"><rect x="60" y="88" width="63.8" height="22" rx="11" ry="11"/><text x="91.9" y="103">CONCAT</text></g><path class="rail" d="M123.8 99 H135.8"/><g class="terminal"><rect x="135.8" y="88" width="32" height="22" rx="11" ry="11"/><text x="151.8" y="103">(</text></g><path class="rail" d="M167.8 99 H179.8"/><a xlink:href="#func_arg" href="#func_arg"><g class="nonterminal"><rect x="179.8" y="88" width="78.4" height="22"/><text x="219" y="103">func_arg</text></g></a><path class="rail" d="M258.20000000000005 99 H270.20000000000005"/><g class="terminal"><rect x="270.20000000000005" y="88" width="49.2" height="22" rx="11" ry="11"/><text x="294.80000000000007" y="103">WITH</text></g><path class="rail" d="M319.40000000000003 99 H331.40000000000003"/><a xlink:href="#func_arg" href="#func_arg"><g class="nonterminal"><rect x="331.40000000000003" y="88" width="78.4" height="22"/><text x="370.6" y="103">func_arg</text></g></a><path class="rail" d="M409.80000000000007 99 H421.80000000000007"/><g class="terminal"><rect x="421.80000000000007" y="88" width="32" height="22" rx="11" ry="11"/><text x="437.80000000000007" y="103">)</text></g><path class="rail" d="M453.79999999999995 99 H631.8"/><path class="rail" d="M631.8 99 A10 10 0 0 0 641.8 89"/><path class="rail" d="M641.8 89 V41"/><path class="rail" d="M641.8 41 A10 10 0 0 1 651.8 31"/><path class="rail" d="M40 31 A10 10 0 0 1 50 41"/><path class="rail" d="M50 41 V123"/><path class="rail" d="M50 123 A10 10 0 0 0 60 133"/><g class="leaf"><rect x="60" y="122" width="93" height="22" rx="11" ry="11"/><text x="106.5" y="137">identifier</text></g><path class="rail" d="M153 133 H165"/><g class="terminal"><rect x="165" y="122" width="32" height="22" rx="11" ry="11"/><text x="181" y="137">(</text></g><path class="rail" d="M197 133 H209"/><a xlink:href="#func_arg_list" href="#func_arg_list"><g class="nonterminal"><rect x="209" y="122" width="114.89999999999999" height="22"/><text x="266.45" y="137">func_arg_list</text></g></a><path class="rail" d="M323.9 133 H335.9"/><g class="terminal"><rect x="335.9" y="122" width="32" height="22" rx="11" ry="11"/><text x="351.9" y="137">)</text></g><path class="rail" d="M367.9 133 H631.8"/><path class="rail" d="M631.8 133 A10 10 0 0 0 641.8 123"/><path class="rail" d="M641.8 123 V41"/><path class="rail" d="M641.8 41 A10 10 0 0 1 651.8 31"/><path class="rail" d="M651.8 31 H660.8"/><g class="terminator"><circle cx="665.8" cy="31" r="5"/></g></svg>