<svg class="railroad" xmlns="http://www.w3.org/2000/svg" xmlns:xlink="http://www.w3.org/1999/xlink" width="228" height="96" viewBox="0 0 228 96"><g class="terminator"><circle cx="26" cy="31" r="5"/></g><path class="rail" d="M31 31 H40"/><path class="rail" d="M40 31 H60"/><a xlink:href="#predicate_or" href="#predicate_or"><g class="nonterminal"><rect x="60" y="20" width="107.6" height="22"/><text x="113.8" y="35">predicate_or</text></g></a><path class="rail" d="M167.6 31 H187.6"/><path class="rail" d="M40 31 A10 10 0 0 1 50 41"/><path class="rail" d="M50 41 V55"/><path class="rail" d="M50 55 A10 10 0 0 0 60 65"/><a xlink:href="#value" href="#value"><g class="nonterminal"><rect x="60" y="54" width="56.5" height="22"/><text x="88.25" y="69">value</text></g></a><path class="rail" d="M116.5 65 H167.6"/><path class="rail" d="M167.6 65 A10 10 0 0 0 177.6 55"/><path class="rail" d="M177.6 55 V41"/><path class="rail" d="M177.6 41 A10 10 0 0 1 187.6 31"/><path class="rail" d="M187.6 31 H196.6"/><g class="terminator"><circle cx="201.6" cy="31" r="5"/></g></svg>