<svg class="railroad" xmlns="http://www.w3.org/2000/svg" xmlns:xlink="http://www.w3.org/1999/xlink" width="157" height="96" viewBox="0 0 157 96"><g class="terminator"><circle cx="26" cy="31" r="5"/></g><path class="rail" d="M31 31 H40"/><path class="rail" d="M40 31 H50"/><a xlink:href="#value" href="#value"><g class="nonterminal"><rect x="50" y="20" width="56.5" height="22"/><text x="78.25" y="35">value</text></g></a><path class="rail" d="M106.5 31 H116.5"/><path class="rail" d="M106.5 31 A10 10 0 0 0 116.5 41"/><path class="rail" d="M116.5 41 V55"/><path class="rail" d="M116.5 55 A10 10 0 0 0 106.5 65"/><path class="rail" d="M106.5 65 H94.5"/><g class="terminal"><rect x="63" y="54" width="32" height="22" rx="11" ry="11"/><text x="79" y="69">,</text></g><path class="rail" d="M50 65 H63"/><path class="arrow" d="M83.25 61 L73.25 65 L83.25 69 Z"/><path class="rail" d="M50 65 A10 10 0 0 0 40 55"/><path class="rail" d="M40 55 V41"/><path class="rail" d="M40 41 A10 10 0 0 0 50 31"/><path class="rail" d="M116.5 31 H125.5"/><g class="terminator"><circle cx="130.5" cy="31" r="5"/></g></svg>