<svg class="railroad" xmlns="http://www.w3.org/2000/svg" xmlns:xlink="http://www.w3.org/1999/xlink" width="193" height="96" viewBox="0 0 193 96"><g class="terminator"><circle cx="26" cy="31" r="5"/></g><path class="rail" d="M31 31 H40"/><path class="rail" d="M40 31 H50"/><g class="leaf"><rect x="50" y="20" width="93" height="22" rx="11" ry="11"/><text x="96.5" y="35">identifier</text></g><path class="rail" d="M143 31 H153"/><path class="rail" d="M143 31 A10 10 0 0 0 153 41"/><path class="rail" d="M153 41 V55"/><path class="rail" d="M153 55 A10 10 0 0 0 143 65"/><path class="rail" d="M143 65 H113"/><g class="terminal"><rect x="81" y="54" width="32" height="22" rx="11" ry="11"/><text x="97" y="69">,</text></g><path class="rail" d="M50 65 H81"/><path class="arrow" d="M101.5 61 L91.5 65 L101.5 69 Z"/><path class="rail" d="M50 65 A10 10 0 0 0 40 55"/><path class="rail" d="M40 55 V41"/><path class="rail" d="M40 41 A10 10 0 0 0 50 31"/><path class="rail" d="M153 31 H162"/><g class="terminator"><circle cx="167" cy="31" r="5"/></g></svg>