<svg class="railroad" xmlns="http://www.w3.org/2000/svg" xmlns:xlink="http://www.w3.org/1999/xlink" width="484" height="62" viewBox="0 0 484 62"><g class="terminator"><circle cx="26" cy="31" r="5"/></g><path class="rail" d="M31 31 H40"/><g class="terminal"><rect x="40" y="20" width="63.8" height="22" rx="11" ry="11"/><text x="71.9" y="35">IMPORT</text></g><path class="rail" d="M103.8 31 H115.8"/><g class="terminal"><rect x="115.8" y="20" width="56.5" height="22" rx="11" ry="11"/><text x="144.05" y="35">TABLE</text></g><path class="rail" d="M172.3 31 H184.3"/><g class="leaf"><rect x="184.3" y="20" width="93" height="22" rx="11" ry="11"/><text x="230.8" y="35">identifier</text></g><path class="rail" d="M277.3 31 H289.3"/><g class="terminal"><rect x="289.3" y="20" width="49.2" height="22" rx="11" ry="11"/><text x="313.90000000000003" y="35">FROM</text></g><path class="rail" d="M338.5 31 H350.5"/><g class="leaf"><rect x="350.5" y="20" width="93" height="22" rx="11" ry="11"/><text x="397" y="35">identifier</text></g><path class="rail" d="M443.5 31 H452.5"/><g class="terminator"><circle cx="457.5" cy="31" r="5"/></g></svg>