<svg class="railroad" xmlns="http://www.w3.org/2000/svg" xmlns:xlink="http://www.w3.org/1999/xlink" width="186" height="96" viewBox="0 0 186 96"><g class="terminator"><circle cx="26" cy="31" r="5"/></g><path class="rail" d="M31 31 H40"/><path class="rail" d="M40 31 H50"/><a xlink:href="#index_col" href="#index_col"><g class="nonterminal"><rect x="50" y="20" width="85.7" height="22"/><text x="92.85" y="35">index_col</text></g></a><path class="rail" d="M135.7 31 H145.7"/><path class="rail" d="M135.7 31 A10 10 0 0 0 145.7 41"/><path class="rail" d="M145.7 41 V55"/><path class="rail" d="M145.7 55 A10 10 0 0 0 135.7 65"/><path class="rail" d="M135.7 65 H109.69999999999999"/><g class="terminal"><rect x="77" y="54" width="32" height="22" rx="11" ry="11"/><text x="93" y="69">,</text></g><path class="rail" d="M50 65 H77"/><path class="arrow" d="M97.85 61 L87.85 65 L97.85 69 Z"/><path class="rail" d="M50 65 A10 10 0 0 0 40 55"/><path class="rail" d="M40 55 V41"/><path class="rail" d="M40 41 A10 10 0 0 0 50 31"/><path class="rail" d="M145.7 31 H154.7"/><g class="terminator"><circle cx="159.7" cy="31" r="5"/></g></svg>