<svg class="railroad" xmlns="http://www.w3.org/2000/svg" xmlns:xlink="http://www.w3.org/1999/xlink" width="275" height="130" viewBox="0 0 275 130"><g class="terminator"><circle cx="26" cy="31" r="5"/></g><path class="rail" d="M31 31 H40"/><path class="rail" d="M40 31 H60"/><g class="leaf"><rect x="60" y="20" width="93" height="22" rx="11" ry="11"/><text x="106.5" y="35">identifier</text></g><path class="rail" d="M153 31 H165"/><g class="terminal"><rect x="165" y="20" width="49.2" height="22" rx="11" ry="11"/><text x="189.6" y="35">DESC</text></g><path class="rail" d="M214.2 31 H234.2"/><path class="rail" d="M40 31 A10 10 0 0 1 50 41"/><path class="rail" d="M50 41 V55"/><path class="rail" d="M50 55 A10 10 0 0 0 60 65"/><g class="leaf"><rect x="60" y="54" width="93" height="22" rx="11" ry="11"/><text x="106.5" y="69">identifier</text></g><path class="rail" d="M153 65 H165"/><g class="terminal"><rect x="165" y="54" width="41.9" height="22" rx="11" ry="11"/><text x="185.95" y="69">ASC</text></g><path class="rail" d="M206.9 65 H214.2"/><path class="rail" d="M214.2 65 A10 10 0 0 0 224.2 55"/><path class="rail" d="M224.2 55 V41"/><path class="rail" d="M224.2 41 A10 10 0 0 1 234.2 31"/><path class="rail" d="M40 31 A10 10 0 0 1 50 41"/><path class="rail" d="M50 41 V89"/><path class="rail" d="M50 89 A10 10 0 0 0 60 99"/><g class="leaf"><rect x="60" y="88" width="93" height="22" rx="11" ry="11"/><text x="106.5" y="103">identifier</text></g><path class="rail" d="M153 99 H214.2"/><path class="rail" d="M214.2 99 A10 10 0 0 0 224.2 89"/><path class="rail" d="M224.2 89 V41"/><path class="rail" d="M224.2 41 A10 10 0 0 1 234.2 31"/><path class="rail" d="M234.2 31 H243.2"/><g class="terminator"><circle cx="248.2" cy="31" r="5"/></g></svg>