<svg class="railroad" xmlns="http://www.w3.org/2000/svg" xmlns:xlink="http://www.w3.org/1999/xlink" width="377" height="96" viewBox="0 0 377 96"><g class="terminator"><circle cx="26" cy="31" r="5"/></g><path class="rail" d="M31 31 H40"/><path class="rail" d="M40 31 H60"/><g class="terminal"><rect x="60" y="20" width="63.8" height="22" rx="11" ry="11"/><text x="91.9" y="35">VALUES</text></g><path class="rail" d="M123.8 31 H135.8"/><g class="terminal"><rect x="135.8" y="20" width="32" height="22" rx="11" ry="11"/><text x="151.8" y="35">(</text></g><path class="rail" d="M167.8 31 H179.8"/><a xlink:href="#value_list" href="#value_list"><g class="nonterminal"><rect x="179.8" y="20" width="93" height="22"/><text x="226.3" y="35">value_list</text></g></a><path class="rail" d="M272.8 31 H284.8"/><g class="terminal"><rect x="284.8" y="20" width="32" height="22" rx="11" ry="11"/><text x="300.8" y="35">)</text></g><path class="rail" d="M316.8 31 H336.8"/><path class="rail" d="M40 31 A10 10 0 0 1 50 41"/><path class="rail" d="M50 41 V55"/><path class="rail" d="M50 55 A10 10 0 0 0 60 65"/><a xlink:href="#select_chain" href="#select_chain"><g class="nonterminal"><rect x="60" y="54" width="107.6" height="22"/><text x="113.8" y="69">select_chain</text></g></a><path class="rail" d="M167.6 65 H316.8"/><path class="rail" d="M316.8 65 A10 10 0 0 0 326.8 55"/><path class="rail" d="M326.8 55 V41"/><path class="rail" d="M326.8 41 A10 10 0 0 1 336.8 31"/><path class="rail" d="M336.8 31 H345.8"/><g class="terminator"><circle cx="350.8" cy="31" r="5"/></g></svg>