<svg class="railroad" xmlns="http://www.w3.org/2000/svg" xmlns:xlink="http://www.w3.org/1999/xlink" width="301" height="74" viewBox="0 0 301 74"><g class="terminator"><circle cx="26" cy="20" r="5"/></g><path class="rail" d="M31 20 H40"/><path class="rail" d="M40 20 H60"/><path class="rail" d="M60 20 H241"/><path class="rail" d="M241 20 H261"/><path class="rail" d="M40 20 A10 10 0 0 1 50 30"/><path class="rail" d="M50 30 V33"/><path class="rail" d="M50 33 A10 10 0 0 0 60 43"/><g class="terminal"><rect x="60" y="32" width="32" height="22" rx="11" ry="11"/><text x="76" y="47">(</text></g><path class="rail" d="M92 43 H104"/><a xlink:href="#ident_list" href="#ident_list"><g class="nonterminal"><rect x="104" y="32" width="93" height="22"/><text x="150.5" y="47">ident_list</text></g></a><path class="rail" d="M197 43 H209"/><g class="terminal"><rect x="209" y="32" width="32" height="22" rx="11" ry="11"/><text x="225" y="47">)</text></g><path class="rail" d="M241 43 A10 10 0 0 0 251 33"/><path class="rail" d="M251 33 V30"/><path class="rail" d="M251 30 A10 10 0 0 1 261 20"/><path class="rail" d="M261 20 H270"/><g class="terminator"><circle cx="275" cy="20" r="5"/></g></svg>