<svg class="railroad" xmlns="http://www.w3.org/2000/svg" xmlns:xlink="http://www.w3.org/1999/xlink" width="579" height="62" viewBox="0 0 579 62"><g class="terminator"><circle cx="26" cy="31" r="5"/></g><path class="rail" d="M31 31 H40"/><g class="terminal"><rect x="40" y="20" width="63.8" height="22" rx="11" ry="11"/><text x="71.9" y="35">INSERT</text></g><path class="rail" d="M103.8 31 H115.8"/><g class="terminal"><rect x="115.8" y="20" width="49.2" height="22" rx="11" ry="11"/><text x="140.4" y="35">INTO</text></g><path class="rail" d="M165 31 H177"/><g class="leaf"><rect x="177" y="20" width="93" height="22" rx="11" ry="11"/><text x="223.5" y="35">identifier</text></g><path class="rail" d="M270 31 H282"/><a xlink:href="#insert_cols_opt" href="#insert_cols_opt"><g class="nonterminal"><rect x="282" y="20" width="129.5" height="22"/><text x="346.75" y="35">insert_cols_opt</text></g></a><path class="rail" d="M411.5 31 H423.5"/><a xlink:href="#insert_source" href="#insert_source"><g class="nonterminal"><rect x="423.5" y="20" width="114.89999999999999" height="22"/><text x="480.95" y="35">insert_source</text></g></a><path class="rail" d="M538.4 31 H547.4"/><g class="terminator"><circle cx="552.4" cy="31" r="5"/></g></svg>