<svg class="railroad" xmlns="http://www.w3.org/2000/svg" xmlns:xlink="http://www.w3.org/1999/xlink" width="307" height="232" viewBox="0 0 307 232"><g class="terminator"><circle cx="26" cy="31" r="5"/></g><path class="rail" d="M31 31 H40"/><path class="rail" d="M40 31 H60"/><g class="terminal"><rect x="60" y="20" width="49.2" height="22" rx="11" ry="11"/><text x="84.6" y="35">LEFT</text></g><path class="rail" d="M109.2 31 H121.2"/><g class="terminal"><rect x="121.2" y="20" width="56.5" height="22" rx="11" ry="11"/><text x="149.45" y="35">OUTER</text></g><path class="rail" d="M177.7 31 H189.7"/><g class="terminal"><rect x="189.7" y="20" width="49.2" height="22" rx="11" ry="11"/><text x="214.29999999999998" y="35">JOIN</text></g><path class="rail" d="M238.9 31 H246.2"/><path class="rail" d="M246.2 31 H266.2"/><path class="rail" d="M40 31 A10 10 0 0 1 50 41"/><path class="rail" d="M50 41 V55"/><path class="rail" d="M50 55 A10 10 0 0 0 60 65"/><g class="terminal"><rect x="60" y="54" width="49.2" height="22" rx="11" ry="11"/><text x="84.6" y="69">LEFT</text></g><path class="rail" d="M109.2 65 H121.2"/><g class="terminal"><rect x="121.2" y="54" width="49.2" height="22" rx="11" ry="11"/><text x="145.8" y="69">JOIN</text></g><path class="rail" d="M170.4 65 H246.2"/><path class="rail" d="M246.2 65 A10 10 0 0 0 256.2 55"/><path class="rail" d="M256.2 55 V41"/><path class="rail" d="M256.2 41 A10 10 0 0 1 266.2 31"/><path class="rail" d="M40 31 A10 10 0 0 1 50 41"/><path class="rail" d="M50 41 V89"/><path class="rail" d="M50 89 A10 10 0 0 0 60 99"/><g class="terminal"><rect x="60" y="88" width="56.5" height="22" rx="11" ry="11"/><text x="88.25" y="103">RIGHT</text></g><path class="rail" d="M116.5 99 H128.5"/><g class="terminal"><rect x="128.5" y="88" width="56.5" height="22" rx="11" ry="11"/><text x="156.75" y="103">OUTER</text></g><path class="rail" d="M185 99 H197"/><g class="terminal"><rect x="197" y="88" width="49.2" height="22" rx="11" ry="11"/><text x="221.6" y="103">JOIN</text></g><path class="rail" d="M246.2 99 A10 10 0 0 0 256.2 89"/><path class="rail" d="M256.2 89 V41"/><path class="rail" d="M256.2 41 A10 10 0 0 1 266.2 31"/><path class="rail" d="M40 31 A10 10 0 0 1 50 41"/><path class="rail" d="M50 41 V123"/><path class="rail" d="M50 123 A10 10 0 0 0 60 133"/><g class="terminal"><rect x="60" y="122" width="56.5" height="22" rx="11" ry="11"/><text x="88.25" y="137">RIGHT</text></g><path class="rail" d="M116.5 133 H128.5"/><g class="terminal"><rect x="128.5" y="122" width="49.2" height="22" rx="11" ry="11"/><text x="153.1" y="137">JOIN</text></g><path class="rail" d="M177.7 133 H246.2"/><path class="rail" d="M246.2 133 A10 10 0 0 0 256.2 123"/><path class="rail" d="M256.2 123 V41"/><path class="rail" d="M256.2 41 A10 10 0 0 1 266.2 31"/><path class="rail" d="M40 31 A10 10 0 0 1 50 41"/><path class="rail" d="M50 41 V157"/><path class="rail" d="M50 157 A10 10 0 0 0 60 167"/><g class="terminal"><rect x="60" y="156" width="56.5" height="22" rx="11" ry="11"/><text x="88.25" y="171">INNER</text></g><path class="rail" d="M116.5 167 H128.5"/><g class="terminal"><rect x="128.5" y="156" width="49.2" height="22" rx="11" ry="11"/><text x="153.1" y="171">JOIN</text></g><path class="rail" d="M177.7 167 H246.2"/><path class="rail" d="M246.2 167 A10 10 0 0 0 256.2 157"/><path class="rail" d="M256.2 157 V41"/><path class="rail" d="M256.2 41 A10 10 0 0 1 266.2 31"/><path class="rail" d="M40 31 A10 10 0 0 1 50 41"/><path class="rail" d="M50 41 V191"/><path class="rail" d="M50 191 A10 10 0 0 0 60 201"/><g class="terminal"><rect x="60" y="190" width="49.2" height="22" rx="11" ry="11"/><text x="84.6" y="205">JOIN</text></g><path class="rail" d="M109.2 201 H246.2"/><path class="rail" d="M246.2 201 A10 10 0 0 0 256.2 191"/><path class="rail" d="M256.2 191 V41"/><path class="rail" d="M256.2 41 A10 10 0 0 1 266.2 31"/><path class="rail" d="M266.2 31 H275.2"/><g class="terminator"><circle cx="280.2" cy="31" r="5"/></g></svg>