<svg class="railroad" xmlns="http://www.w3.org/2000/svg" xmlns:xlink="http://www.w3.org/1999/xlink" width="199" height="198" viewBox="0 0 199 198"><g class="terminator"><circle cx="26" cy="31" r="5"/></g><path class="rail" d="M31 31 H40"/><path class="rail" d="M40 31 H60"/><g class="terminal"><rect x="60" y="20" width="56.5" height="22" rx="11" ry="11"/><text x="88.25" y="35">EMPTY</text></g><path class="rail" d="M116.5 31 H138.4"/><path class="rail" d="M138.4 31 H158.4"/><path class="rail" d="M40 31 A10 10 0 0 1 50 41"/><path class="rail" d="M50 41 V55"/><path class="rail" d="M50 55 A10 10 0 0 0 60 65"/><g class="terminal"><rect x="60" y="54" width="78.4" height="22" rx="11" ry="11"/><text x="99.2" y="69">OPTIMIZE</text></g><path class="rail" d="M138.4 65 A10 10 0 0 0 148.4 55"/><path class="rail" d="M148.4 55 V41"/><path class="rail" d="M148.4 41 A10 10 0 0 1 158.4 31"/><path class="rail" d="M40 31 A10 10 0 0 1 50 41"/><path class="rail" d="M50 41 V89"/><path class="rail" d="M50 89 A10 10 0 0 0 60 99"/><g class="terminal"><rect x="60" y="88" width="63.8" height="22" rx="11" ry="11"/><text x="91.9" y="103">VERIFY</text></g><path class="rail" d="M123.8 99 H138.4"/><path class="rail" d="M138.4 99 A10 10 0 0 0 148.4 89"/><path class="rail" d="M148.4 89 V41"/><path class="rail" d="M148.4 41 A10 10 0 0 1 158.4 31"/><path class="rail" d="M40 31 A10 10 0 0 1 50 41"/><path class="rail" d="M50 41 V123"/><path class="rail" d="M50 123 A10 10 0 0 0 60 133"/><g class="terminal"><rect x="60" y="122" width="63.8" height="22" rx="11" ry="11"/><text x="91.9" y="137">REPAIR</text></g><path class="rail" d="M123.8 133 H138.4"/><path class="rail" d="M138.4 133 A10 10 0 0 0 148.4 123"/><path class="rail" d="M148.4 123 V41"/><path class="rail" d="M148.4 41 A10 10 0 0 1 158.4 31"/><path class="rail" d="M40 31 A10 10 0 0 1 50 41"/><path class="rail" d="M50 41 V157"/><path class="rail" d="M50 157 A10 10 0 0 0 60 167"/><g class="terminal"><rect x="60" y="156" width="71.1" height="22" rx="11" ry="11"/><text x="95.55" y="171">UPGRADE</text></g><path class="rail" d="M131.1 167 H138.4"/><path class="rail" d="M138.4 167 A10 10 0 0 0 148.4 157"/><path class="rail" d="M148.4 157 V41"/><path class="rail" d="M148.4 41 A10 10 0 0 1 158.4 31"/><path class="rail" d="M158.4 31 H167.4"/><g class="terminator"><circle cx="172.4" cy="31" r="5"/></g></svg>