<svg class="railroad" xmlns="http://www.w3.org/2000/svg" xmlns:xlink="http://www.w3.org/1999/xlink" width="219" height="106" viewBox="0 0 219 106"><g class="terminator"><circle cx="26" cy="20" r="5"/></g><path class="rail" d="M31 20 H40"/><path class="rail" d="M40 20 H60"/><path class="rail" d="M60 20 H158.4"/><path class="rail" d="M158.4 20 H178.4"/><path class="rail" d="M40 20 A10 10 0 0 1 50 30"/><path class="rail" d="M50 30 V33"/><path class="rail" d="M50 33 A10 10 0 0 0 60 43"/><path class="rail" d="M60 43 H70"/><a xlink:href="#modifier" href="#modifier"><g class="nonterminal"><rect x="70" y="32" width="78.4" height="22"/><text x="109.2" y="47">modifier</text></g></a><path class="rail" d="M148.4 43 H158.4"/><path class="rail" d="M148.4 43 A10 10 0 0 0 158.4 53"/><path class="rail" d="M158.4 53 V66"/><path class="rail" d="M158.4 66 A10 10 0 0 0 148.4 76"/><path class="rail" d="M70 76 H148.4"/><path class="arrow" d="M114.2 72 L104.2 76 L114.2 80 Z"/><path class="rail" d="M70 76 A10 10 0 0 0 60 66"/><path class="rail" d="M60 66 V53"/><path class="rail" d="M60 53 A10 10 0 0 0 70 43"/><path class="rail" d="M158.4 43 A10 10 0 0 0 168.4 33"/><path class="rail" d="M168.4 33 V30"/><path class="rail" d="M168.4 30 A10 10 0 0 1 178.4 20"/><path class="rail" d="M178.4 20 H187.4"/><g class="terminator"><circle cx="192.4" cy="20" r="5"/></g></svg>