<svg class="railroad" xmlns="http://www.w3.org/2000/svg" xmlns:xlink="http://www.w3.org/1999/xlink" width="365" height="198" viewBox="0 0 365 198"><g class="terminator"><circle cx="26" cy="31" r="5"/></g><path class="rail" d="M31 31 H40"/><path class="rail" d="M40 31 H60"/><g class="terminal"><rect x="60" y="20" width="56.5" height="22" rx="11" ry="11"/><text x="88.25" y="35">WHERE</text></g><path class="rail" d="M116.5 31 H128.5"/><a xlink:href="#predicate_or" href="#predicate_or"><g class="nonterminal"><rect x="128.5" y="20" width="107.6" height="22"/><text x="182.3" y="35">predicate_or</text></g></a><path class="rail" d="M236.1 31 H304.6"/><path class="rail" d="M304.6 31 H324.6"/><path class="rail" d="M40 31 A10 10 0 0 1 50 41"/><path class="rail" d="M50 41 V55"/><path class="rail" d="M50 55 A10 10 0 0 0 60 65"/><g class="terminal"><rect x="60" y="54" width="56.5" height="22" rx="11" ry="11"/><text x="88.25" y="69">GROUP</text></g><path class="rail" d="M116.5 65 H128.5"/><g class="terminal"><rect x="128.5" y="54" width="34.6" height="22" rx="11" ry="11"/><text x="145.8" y="69">BY</text></g><path class="rail" d="M163.1 65 H175.1"/><a xlink:href="#group_by_list" href="#group_by_list"><g class="nonterminal"><rect x="175.1" y="54" width="114.89999999999999" height="22"/><text x="232.54999999999998" y="69">group_by_list</text></g></a><path class="rail" d="M290 65 H304.6"/><path class="rail" d="M304.6 65 A10 10 0 0 0 314.6 55"/><path class="rail" d="M314.6 55 V41"/><path class="rail" d="M314.6 41 A10 10 0 0 1 324.6 31"/><path class="rail" d="M40 31 A10 10 0 0 1 50 41"/><path class="rail" d="M50 41 V89"/><path class="rail" d="M50 89 A10 10 0 0 0 60 99"/><g class="terminal"><rect x="60" y="88" width="56.5" height="22" rx="11" ry="11"/><text x="88.25" y="103">ORDER</text></g><path class="rail" d="M116.5 99 H128.5"/><g class="terminal"><rect x="128.5" y="88" width="34.6" height="22" rx="11" ry="11"/><text x="145.8" y="103">BY</text></g><path class="rail" d="M163.1 99 H175.1"/><a xlink:href="#order_item_list" href="#order_item_list"><g class="nonterminal"><rect x="175.1" y="88" width="129.5" height="22"/><text x="239.85" y="103">order_item_list</text></g></a><path class="rail" d="M304.6 99 A10 10 0 0 0 314.6 89"/><path class="rail" d="M314.6 89 V41"/><path class="rail" d="M314.6 41 A10 10 0 0 1 324.6 31"/><path class="rail" d="M40 31 A10 10 0 0 1 50 41"/><path class="rail" d="M50 41 V123"/><path class="rail" d="M50 123 A10 10 0 0 0 60 133"/><g class="terminal"><rect x="60" y="122" width="63.8" height="22" rx="11" ry="11"/><text x="91.9" y="137">HAVING</text></g><path class="rail" d="M123.8 133 H135.8"/><a xlink:href="#predicate_or" href="#predicate_or"><g class="nonterminal"><rect x="135.8" y="122" width="107.6" height="22"/><text x="189.60000000000002" y="137">predicate_or</text></g></a><path class="rail" d="M243.39999999999998 133 H304.6"/><path class="rail" d="M304.6 133 A10 10 0 0 0 314.6 123"/><path class="rail" d="M314.6 123 V41"/><path class="rail" d="M314.6 41 A10 10 0 0 1 324.6 31"/><path class="rail" d="M40 31 A10 10 0 0 1 50 41"/><path class="rail" d="M50 41 V157"/><path class="rail" d="M50 157 A10 10 0 0 0 60 167"/><g class="terminal"><rect x="60" y="156" width="41.9" height="22" rx="11" ry="11"/><text x="80.95" y="171">TOP</text></g><path class="rail" d="M101.9 167 H113.9"/><g class="leaf"><rect x="113.9" y="156" width="129.5" height="22" rx="11" ry="11"/><text x="178.65" y="171">integer_literal</text></g><path class="rail" d="M243.4 167 H304.6"/><path class="rail" d="M304.6 167 A10 10 0 0 0 314.6 157"/><path class="rail" d="M314.6 157 V41"/><path class="rail" d="M314.6 41 A10 10 0 0 1 324.6 31"/><path class="rail" d="M324.6 31 H333.6"/><g class="terminator"><circle cx="338.6" cy="31" r="5"/></g></svg>