<svg class="railroad-diagram" width="228" height="80" viewBox="0 0 228 80" xmlns="http://www.w3.org/2000/svg" xmlns:xlink="http://www.w3.org/1999/xlink">
<g transform="translate(.5 .5)">
<g>
<path stroke="#444" stroke-width="2" fill="none" d="M20 30v20m10 -20v20m-10 -10h20"></path>
</g>
<g>
<path stroke="#444" stroke-width="2" fill="none" d="M40 40h0"></path>
<path stroke="#444" stroke-width="2" fill="none" d="M188 40h0"></path>
<path stroke="#444" stroke-width="2" fill="none" d="M40 40a10 10 0 0 0 10 -10v0a10 10 0 0 1 10 -10"></path>
<g>
<path stroke="#444" stroke-width="2" fill="none" d="M60 20h108"></path>
</g>
<path stroke="#444" stroke-width="2" fill="none" d="M168 20a10 10 0 0 1 10 10v0a10 10 0 0 0 10 10"></path>
<path stroke="#444" stroke-width="2" fill="none" d="M40 40h20"></path>
<g>
<path stroke="#444" stroke-width="2" fill="none" d="M60 40h0"></path>
<path stroke="#444" stroke-width="2" fill="none" d="M168 40h0"></path>
<path stroke="#444" stroke-width="2" fill="none" d="M60 40h10"></path>
<g class="non-terminal ">
<path stroke="#444" stroke-width="2" fill="none" d="M70 40h0"></path>
<path stroke="#444" stroke-width="2" fill="none" d="M158 40h0"></path>
<rect stroke="#3a5a9a" fill="#e3ecfb" stroke-width="1.6" x="70" y="29" width="88" height="22"></rect>
<a xlink:href="#modifier"><text fill="#142a5a" font-family="monospace" font-size="13" font-weight="bold" text-anchor="middle" x="114" y="44">modifier</text>
</a>
</g>
<path stroke="#444" stroke-width="2" fill="none" d="M158 40h10"></path>
<path stroke="#444" stroke-width="2" fill="none" d="M70 40a10 10 0 0 0 -10 10v0a10 10 0 0 0 10 10"></path>
<g>
<path stroke="#444" stroke-width="2" fill="none" d="M70 60h88"></path>
</g>
<path stroke="#444" stroke-width="2" fill="none" d="M158 60a10 10 0 0 0 10 -10v0a10 10 0 0 0 -10 -10"></path>
</g>
<path stroke="#444" stroke-width="2" fill="none" d="M168 40h20"></path>
</g>
<path stroke="#444" stroke-width="2" fill="none" d="M 188 40 h 20 m -10 -10 v 20 m 10 -20 v 20"></path>
</g>
<style>
svg.railroad-diagram { background: transparent; }
svg.railroad-diagram path { stroke-width: 2; stroke: #444; fill: none; }
svg.railroad-diagram text { font: bold 13px ui-monospace, Menlo, Consolas, monospace; text-anchor: middle; }
svg.railroad-diagram text.comment { font: italic 12px ui-monospace, Menlo, Consolas, monospace; }
svg.railroad-diagram rect { stroke-width: 1.6px; stroke: #3a8a3a; fill: #d7f0d7; }
svg.railroad-diagram g.terminal text { fill: #143a14; }
svg.railroad-diagram g.non-terminal rect { stroke: #3a5a9a; fill: #e3ecfb; }
svg.railroad-diagram g.non-terminal text { fill: #142a5a; }
svg.railroad-diagram g.terminal.leaf rect { stroke: #b8862b; fill: #fbeede; stroke-dasharray: 4 2; }
svg.railroad-diagram g.terminal.leaf text { fill: #5a3d05; font-style: italic; }
svg.railroad-diagram a:hover g.non-terminal rect { fill: #cfe0fb; }
</style>
</svg>
