<svg class="railroad" xmlns="http://www.w3.org/2000/svg" xmlns:xlink="http://www.w3.org/1999/xlink" width="359" height="185" viewBox="0 0 359 185"><g class="terminator"><circle cx="26" cy="31" r="5"/></g><path class="rail" d="M31 31 H40"/><a xlink:href="#unary" href="#unary"><g class="nonterminal"><rect x="40" y="20" width="56.5" height="22"/><text x="68.25" y="35">unary</text></g></a><path class="rail" d="M96.5 31 H108.5"/><path class="rail" d="M108.5 31 H128.5"/><path class="rail" d="M128.5 31 H298.9"/><path class="rail" d="M298.9 31 H318.9"/><path class="rail" d="M108.5 31 A10 10 0 0 1 118.5 41"/><path class="rail" d="M118.5 41 V44"/><path class="rail" d="M118.5 44 A10 10 0 0 0 128.5 54"/><path class="rail" d="M128.5 54 H138.5"/><path class="rail" d="M138.5 54 H158.5"/><g class="terminal"><rect x="158.5" y="43" width="32" height="22" rx="11" ry="11"/><text x="174.5" y="58">*</text></g><path class="rail" d="M190.5 54 H202.5"/><a xlink:href="#unary" href="#unary"><g class="nonterminal"><rect x="202.5" y="43" width="56.5" height="22"/><text x="230.75" y="58">unary</text></g></a><path class="rail" d="M259 54 H268.9"/><path class="rail" d="M268.9 54 H288.9"/><path class="rail" d="M138.5 54 A10 10 0 0 1 148.5 64"/><path class="rail" d="M148.5 64 V78"/><path class="rail" d="M148.5 78 A10 10 0 0 0 158.5 88"/><g class="terminal"><rect x="158.5" y="77" width="32" height="22" rx="11" ry="11"/><text x="174.5" y="92">/</text></g><path class="rail" d="M190.5 88 H202.5"/><a xlink:href="#unary" href="#unary"><g class="nonterminal"><rect x="202.5" y="77" width="56.5" height="22"/><text x="230.75" y="92">unary</text></g></a><path class="rail" d="M259 88 H268.9"/><path class="rail" d="M268.9 88 A10 10 0 0 0 278.9 78"/><path class="rail" d="M278.9 78 V64"/><path class="rail" d="M278.9 64 A10 10 0 0 1 288.9 54"/><path class="rail" d="M138.5 54 A10 10 0 0 1 148.5 64"/><path class="rail" d="M148.5 64 V112"/><path class="rail" d="M148.5 112 A10 10 0 0 0 158.5 122"/><g class="terminal"><rect x="158.5" y="111" width="41.9" height="22" rx="11" ry="11"/><text x="179.45" y="126">MOD</text></g><path class="rail" d="M200.4 122 H212.4"/><a xlink:href="#unary" href="#unary"><g class="nonterminal"><rect x="212.4" y="111" width="56.5" height="22"/><text x="240.65" y="126">unary</text></g></a><path class="rail" d="M268.9 122 A10 10 0 0 0 278.9 112"/><path class="rail" d="M278.9 112 V64"/><path class="rail" d="M278.9 64 A10 10 0 0 1 288.9 54"/><path class="rail" d="M288.9 54 H298.9"/><path class="rail" d="M288.9 54 A10 10 0 0 0 298.9 64"/><path class="rail" d="M298.9 64 V145"/><path class="rail" d="M298.9 145 A10 10 0 0 0 288.9 155"/><path class="rail" d="M138.5 155 H288.9"/><path class="arrow" d="M218.7 151 L208.7 155 L218.7 159 Z"/><path class="rail" d="M138.5 155 A10 10 0 0 0 128.5 145"/><path class="rail" d="M128.5 145 V64"/><path class="rail" d="M128.5 64 A10 10 0 0 0 138.5 54"/><path class="rail" d="M298.9 54 A10 10 0 0 0 308.9 44"/><path class="rail" d="M308.9 44 V41"/><path class="rail" d="M308.9 41 A10 10 0 0 1 318.9 31"/><path class="rail" d="M318.9 31 H327.9"/><g class="terminator"><circle cx="332.9" cy="31" r="5"/></g></svg>