<svg class="railroad" xmlns="http://www.w3.org/2000/svg" xmlns:xlink="http://www.w3.org/1999/xlink" width="238" height="130" viewBox="0 0 238 130"><g class="terminator"><circle cx="26" cy="31" r="5"/></g><path class="rail" d="M31 31 H40"/><path class="rail" d="M40 31 H60"/><a xlink:href="#value" href="#value"><g class="nonterminal"><rect x="60" y="20" width="56.5" height="22"/><text x="88.25" y="35">value</text></g></a><path class="rail" d="M116.5 31 H128.5"/><g class="terminal"><rect x="128.5" y="20" width="49.2" height="22" rx="11" ry="11"/><text x="153.1" y="35">DESC</text></g><path class="rail" d="M177.7 31 H197.7"/><path class="rail" d="M40 31 A10 10 0 0 1 50 41"/><path class="rail" d="M50 41 V55"/><path class="rail" d="M50 55 A10 10 0 0 0 60 65"/><a xlink:href="#value" href="#value"><g class="nonterminal"><rect x="60" y="54" width="56.5" height="22"/><text x="88.25" y="69">value</text></g></a><path class="rail" d="M116.5 65 H128.5"/><g class="terminal"><rect x="128.5" y="54" width="41.9" height="22" rx="11" ry="11"/><text x="149.45" y="69">ASC</text></g><path class="rail" d="M170.4 65 H177.7"/><path class="rail" d="M177.7 65 A10 10 0 0 0 187.7 55"/><path class="rail" d="M187.7 55 V41"/><path class="rail" d="M187.7 41 A10 10 0 0 1 197.7 31"/><path class="rail" d="M40 31 A10 10 0 0 1 50 41"/><path class="rail" d="M50 41 V89"/><path class="rail" d="M50 89 A10 10 0 0 0 60 99"/><a xlink:href="#value" href="#value"><g class="nonterminal"><rect x="60" y="88" width="56.5" height="22"/><text x="88.25" y="103">value</text></g></a><path class="rail" d="M116.5 99 H177.7"/><path class="rail" d="M177.7 99 A10 10 0 0 0 187.7 89"/><path class="rail" d="M187.7 89 V41"/><path class="rail" d="M187.7 41 A10 10 0 0 1 197.7 31"/><path class="rail" d="M197.7 31 H206.7"/><g class="terminator"><circle cx="211.7" cy="31" r="5"/></g></svg>