<svg class="railroad" xmlns="http://www.w3.org/2000/svg" xmlns:xlink="http://www.w3.org/1999/xlink" width="215" height="96" viewBox="0 0 215 96"><g class="terminator"><circle cx="26" cy="31" r="5"/></g><path class="rail" d="M31 31 H40"/><path class="rail" d="M40 31 H50"/><a xlink:href="#predicate_and" href="#predicate_and"><g class="nonterminal"><rect x="50" y="20" width="114.89999999999999" height="22"/><text x="107.44999999999999" y="35">predicate_and</text></g></a><path class="rail" d="M164.89999999999998 31 H174.89999999999998"/><path class="rail" d="M164.89999999999998 31 A10 10 0 0 0 174.89999999999998 41"/><path class="rail" d="M174.89999999999998 41 V55"/><path class="rail" d="M174.89999999999998 55 A10 10 0 0 0 164.89999999999998 65"/><path class="rail" d="M164.89999999999998 65 H124.89999999999998"/><g class="terminal"><rect x="91" y="54" width="34.6" height="22" rx="11" ry="11"/><text x="108.3" y="69">OR</text></g><path class="rail" d="M50 65 H91"/><path class="arrow" d="M112.44999999999999 61 L102.44999999999999 65 L112.44999999999999 69 Z"/><path class="rail" d="M50 65 A10 10 0 0 0 40 55"/><path class="rail" d="M40 55 V41"/><path class="rail" d="M40 41 A10 10 0 0 0 50 31"/><path class="rail" d="M174.89999999999998 31 H183.89999999999998"/><g class="terminator"><circle cx="188.89999999999998" cy="31" r="5"/></g></svg>