<svg class="railroad" xmlns="http://www.w3.org/2000/svg" xmlns:xlink="http://www.w3.org/1999/xlink" width="505" height="436" viewBox="0 0 505 436"><g class="terminator"><circle cx="26" cy="31" r="5"/></g><path class="rail" d="M31 31 H40"/><path class="rail" d="M40 31 H60"/><g class="terminal"><rect x="60" y="20" width="32" height="22" rx="11" ry="11"/><text x="76" y="35">(</text></g><path class="rail" d="M92 31 H104"/><a xlink:href="#predicate_or" href="#predicate_or"><g class="nonterminal"><rect x="104" y="20" width="107.6" height="22"/><text x="157.8" y="35">predicate_or</text></g></a><path class="rail" d="M211.6 31 H223.6"/><g class="terminal"><rect x="223.6" y="20" width="32" height="22" rx="11" ry="11"/><text x="239.6" y="35">)</text></g><path class="rail" d="M255.6 31 H444.4"/><path class="rail" d="M444.4 31 H464.4"/><path class="rail" d="M40 31 A10 10 0 0 1 50 41"/><path class="rail" d="M50 41 V55"/><path class="rail" d="M50 55 A10 10 0 0 0 60 65"/><g class="terminal"><rect x="60" y="54" width="41.9" height="22" rx="11" ry="11"/><text x="80.95" y="69">NOT</text></g><path class="rail" d="M101.9 65 H113.9"/><a xlink:href="#predicate_atom" href="#predicate_atom"><g class="nonterminal"><rect x="113.9" y="54" width="122.2" height="22"/><text x="175" y="69">predicate_atom</text></g></a><path class="rail" d="M236.1 65 H444.4"/><path class="rail" d="M444.4 65 A10 10 0 0 0 454.4 55"/><path class="rail" d="M454.4 55 V41"/><path class="rail" d="M454.4 41 A10 10 0 0 1 464.4 31"/><path class="rail" d="M40 31 A10 10 0 0 1 50 41"/><path class="rail" d="M50 41 V89"/><path class="rail" d="M50 89 A10 10 0 0 0 60 99"/><a xlink:href="#value" href="#value"><g class="nonterminal"><rect x="60" y="88" width="56.5" height="22"/><text x="88.25" y="103">value</text></g></a><path class="rail" d="M116.5 99 H128.5"/><g class="terminal"><rect x="128.5" y="88" width="34.6" height="22" rx="11" ry="11"/><text x="145.8" y="103">IS</text></g><path class="rail" d="M163.1 99 H175.1"/><g class="terminal"><rect x="175.1" y="88" width="41.9" height="22" rx="11" ry="11"/><text x="196.04999999999998" y="103">NOT</text></g><path class="rail" d="M217 99 H229"/><g class="terminal"><rect x="229" y="88" width="49.2" height="22" rx="11" ry="11"/><text x="253.6" y="103">NULL</text></g><path class="rail" d="M278.2 99 H444.4"/><path class="rail" d="M444.4 99 A10 10 0 0 0 454.4 89"/><path class="rail" d="M454.4 89 V41"/><path class="rail" d="M454.4 41 A10 10 0 0 1 464.4 31"/><path class="rail" d="M40 31 A10 10 0 0 1 50 41"/><path class="rail" d="M50 41 V123"/><path class="rail" d="M50 123 A10 10 0 0 0 60 133"/><a xlink:href="#value" href="#value"><g class="nonterminal"><rect x="60" y="122" width="56.5" height="22"/><text x="88.25" y="137">value</text></g></a><path class="rail" d="M116.5 133 H128.5"/><g class="terminal"><rect x="128.5" y="122" width="34.6" height="22" rx="11" ry="11"/><text x="145.8" y="137">IS</text></g><path class="rail" d="M163.1 133 H175.1"/><g class="terminal"><rect x="175.1" y="122" width="49.2" height="22" rx="11" ry="11"/><text x="199.7" y="137">NULL</text></g><path class="rail" d="M224.3 133 H444.4"/><path class="rail" d="M444.4 133 A10 10 0 0 0 454.4 123"/><path class="rail" d="M454.4 123 V41"/><path class="rail" d="M454.4 41 A10 10 0 0 1 464.4 31"/><path class="rail" d="M40 31 A10 10 0 0 1 50 41"/><path class="rail" d="M50 41 V157"/><path class="rail" d="M50 157 A10 10 0 0 0 60 167"/><a xlink:href="#value" href="#value"><g class="nonterminal"><rect x="60" y="156" width="56.5" height="22"/><text x="88.25" y="171">value</text></g></a><path class="rail" d="M116.5 167 H128.5"/><g class="terminal"><rect x="128.5" y="156" width="41.9" height="22" rx="11" ry="11"/><text x="149.45" y="171">NOT</text></g><path class="rail" d="M170.4 167 H182.4"/><g class="terminal"><rect x="182.4" y="156" width="34.6" height="22" rx="11" ry="11"/><text x="199.70000000000002" y="171">IN</text></g><path class="rail" d="M217 167 H229"/><g class="terminal"><rect x="229" y="156" width="32" height="22" rx="11" ry="11"/><text x="245" y="171">(</text></g><path class="rail" d="M261 167 H273"/><a xlink:href="#in_rhs" href="#in_rhs"><g class="nonterminal"><rect x="273" y="156" width="63.8" height="22"/><text x="304.9" y="171">in_rhs</text></g></a><path class="rail" d="M336.8 167 H348.8"/><g class="terminal"><rect x="348.8" y="156" width="32" height="22" rx="11" ry="11"/><text x="364.8" y="171">)</text></g><path class="rail" d="M380.8 167 H444.4"/><path class="rail" d="M444.4 167 A10 10 0 0 0 454.4 157"/><path class="rail" d="M454.4 157 V41"/><path class="rail" d="M454.4 41 A10 10 0 0 1 464.4 31"/><path class="rail" d="M40 31 A10 10 0 0 1 50 41"/><path class="rail" d="M50 41 V191"/><path class="rail" d="M50 191 A10 10 0 0 0 60 201"/><a xlink:href="#value" href="#value"><g class="nonterminal"><rect x="60" y="190" width="56.5" height="22"/><text x="88.25" y="205">value</text></g></a><path class="rail" d="M116.5 201 H128.5"/><g class="terminal"><rect x="128.5" y="190" width="34.6" height="22" rx="11" ry="11"/><text x="145.8" y="205">IN</text></g><path class="rail" d="M163.1 201 H175.1"/><g class="terminal"><rect x="175.1" y="190" width="32" height="22" rx="11" ry="11"/><text x="191.1" y="205">(</text></g><path class="rail" d="M207.1 201 H219.1"/><a xlink:href="#in_rhs" href="#in_rhs"><g class="nonterminal"><rect x="219.1" y="190" width="63.8" height="22"/><text x="251" y="205">in_rhs</text></g></a><path class="rail" d="M282.9 201 H294.9"/><g class="terminal"><rect x="294.9" y="190" width="32" height="22" rx="11" ry="11"/><text x="310.9" y="205">)</text></g><path class="rail" d="M326.9 201 H444.4"/><path class="rail" d="M444.4 201 A10 10 0 0 0 454.4 191"/><path class="rail" d="M454.4 191 V41"/><path class="rail" d="M454.4 41 A10 10 0 0 1 464.4 31"/><path class="rail" d="M40 31 A10 10 0 0 1 50 41"/><path class="rail" d="M50 41 V225"/><path class="rail" d="M50 225 A10 10 0 0 0 60 235"/><a xlink:href="#value" href="#value"><g class="nonterminal"><rect x="60" y="224" width="56.5" height="22"/><text x="88.25" y="239">value</text></g></a><path class="rail" d="M116.5 235 H128.5"/><g class="terminal"><rect x="128.5" y="224" width="41.9" height="22" rx="11" ry="11"/><text x="149.45" y="239">NOT</text></g><path class="rail" d="M170.4 235 H182.4"/><g class="terminal"><rect x="182.4" y="224" width="71.1" height="22" rx="11" ry="11"/><text x="217.95" y="239">BETWEEN</text></g><path class="rail" d="M253.5 235 H265.5"/><a xlink:href="#value" href="#value"><g class="nonterminal"><rect x="265.5" y="224" width="56.5" height="22"/><text x="293.75" y="239">value</text></g></a><path class="rail" d="M322 235 H334"/><g class="terminal"><rect x="334" y="224" width="41.9" height="22" rx="11" ry="11"/><text x="354.95" y="239">AND</text></g><path class="rail" d="M375.9 235 H387.9"/><a xlink:href="#value" href="#value"><g class="nonterminal"><rect x="387.9" y="224" width="56.5" height="22"/><text x="416.15" y="239">value</text></g></a><path class="rail" d="M444.4 235 A10 10 0 0 0 454.4 225"/><path class="rail" d="M454.4 225 V41"/><path class="rail" d="M454.4 41 A10 10 0 0 1 464.4 31"/><path class="rail" d="M40 31 A10 10 0 0 1 50 41"/><path class="rail" d="M50 41 V259"/><path class="rail" d="M50 259 A10 10 0 0 0 60 269"/><a xlink:href="#value" href="#value"><g class="nonterminal"><rect x="60" y="258" width="56.5" height="22"/><text x="88.25" y="273">value</text></g></a><path class="rail" d="M116.5 269 H128.5"/><g class="terminal"><rect x="128.5" y="258" width="71.1" height="22" rx="11" ry="11"/><text x="164.05" y="273">BETWEEN</text></g><path class="rail" d="M199.6 269 H211.6"/><a xlink:href="#value" href="#value"><g class="nonterminal"><rect x="211.6" y="258" width="56.5" height="22"/><text x="239.85" y="273">value</text></g></a><path class="rail" d="M268.1 269 H280.1"/><g class="terminal"><rect x="280.1" y="258" width="41.9" height="22" rx="11" ry="11"/><text x="301.05" y="273">AND</text></g><path class="rail" d="M322 269 H334"/><a xlink:href="#value" href="#value"><g class="nonterminal"><rect x="334" y="258" width="56.5" height="22"/><text x="362.25" y="273">value</text></g></a><path class="rail" d="M390.5 269 H444.4"/><path class="rail" d="M444.4 269 A10 10 0 0 0 454.4 259"/><path class="rail" d="M454.4 259 V41"/><path class="rail" d="M454.4 41 A10 10 0 0 1 464.4 31"/><path class="rail" d="M40 31 A10 10 0 0 1 50 41"/><path class="rail" d="M50 41 V293"/><path class="rail" d="M50 293 A10 10 0 0 0 60 303"/><a xlink:href="#value" href="#value"><g class="nonterminal"><rect x="60" y="292" width="56.5" height="22"/><text x="88.25" y="307">value</text></g></a><path class="rail" d="M116.5 303 H128.5"/><g class="terminal"><rect x="128.5" y="292" width="41.9" height="22" rx="11" ry="11"/><text x="149.45" y="307">NOT</text></g><path class="rail" d="M170.4 303 H182.4"/><g class="terminal"><rect x="182.4" y="292" width="49.2" height="22" rx="11" ry="11"/><text x="207" y="307">LIKE</text></g><path class="rail" d="M231.60000000000002 303 H243.60000000000002"/><g class="leaf"><rect x="243.60000000000002" y="292" width="122.2" height="22" rx="11" ry="11"/><text x="304.70000000000005" y="307">string_literal</text></g><path class="rail" d="M365.8 303 H444.4"/><path class="rail" d="M444.4 303 A10 10 0 0 0 454.4 293"/><path class="rail" d="M454.4 293 V41"/><path class="rail" d="M454.4 41 A10 10 0 0 1 464.4 31"/><path class="rail" d="M40 31 A10 10 0 0 1 50 41"/><path class="rail" d="M50 41 V327"/><path class="rail" d="M50 327 A10 10 0 0 0 60 337"/><a xlink:href="#value" href="#value"><g class="nonterminal"><rect x="60" y="326" width="56.5" height="22"/><text x="88.25" y="341">value</text></g></a><path class="rail" d="M116.5 337 H128.5"/><g class="terminal"><rect x="128.5" y="326" width="49.2" height="22" rx="11" ry="11"/><text x="153.1" y="341">LIKE</text></g><path class="rail" d="M177.7 337 H189.7"/><g class="leaf"><rect x="189.7" y="326" width="122.2" height="22" rx="11" ry="11"/><text x="250.79999999999998" y="341">string_literal</text></g><path class="rail" d="M311.9 337 H444.4"/><path class="rail" d="M444.4 337 A10 10 0 0 0 454.4 327"/><path class="rail" d="M454.4 327 V41"/><path class="rail" d="M454.4 41 A10 10 0 0 1 464.4 31"/><path class="rail" d="M40 31 A10 10 0 0 1 50 41"/><path class="rail" d="M50 41 V361"/><path class="rail" d="M50 361 A10 10 0 0 0 60 371"/><a xlink:href="#value" href="#value"><g class="nonterminal"><rect x="60" y="360" width="56.5" height="22"/><text x="88.25" y="375">value</text></g></a><path class="rail" d="M116.5 371 H128.5"/><a xlink:href="#cmp_op" href="#cmp_op"><g class="nonterminal"><rect x="128.5" y="360" width="63.8" height="22"/><text x="160.4" y="375">cmp_op</text></g></a><path class="rail" d="M192.3 371 H204.3"/><a xlink:href="#value" href="#value"><g class="nonterminal"><rect x="204.3" y="360" width="56.5" height="22"/><text x="232.55" y="375">value</text></g></a><path class="rail" d="M260.8 371 H444.4"/><path class="rail" d="M444.4 371 A10 10 0 0 0 454.4 361"/><path class="rail" d="M454.4 361 V41"/><path class="rail" d="M454.4 41 A10 10 0 0 1 464.4 31"/><path class="rail" d="M40 31 A10 10 0 0 1 50 41"/><path class="rail" d="M50 41 V395"/><path class="rail" d="M50 395 A10 10 0 0 0 60 405"/><a xlink:href="#value" href="#value"><g class="nonterminal"><rect x="60" y="394" width="56.5" height="22"/><text x="88.25" y="409">value</text></g></a><path class="rail" d="M116.5 405 H128.5"/><g class="terminal"><rect x="128.5" y="394" width="32" height="22" rx="11" ry="11"/><text x="144.5" y="409">=</text></g><path class="rail" d="M160.5 405 H172.5"/><a xlink:href="#value" href="#value"><g class="nonterminal"><rect x="172.5" y="394" width="56.5" height="22"/><text x="200.75" y="409">value</text></g></a><path class="rail" d="M229 405 H444.4"/><path class="rail" d="M444.4 405 A10 10 0 0 0 454.4 395"/><path class="rail" d="M454.4 395 V41"/><path class="rail" d="M454.4 41 A10 10 0 0 1 464.4 31"/><path class="rail" d="M464.4 31 H473.4"/><g class="terminator"><circle cx="478.4" cy="31" r="5"/></g></svg>