<svg class="railroad" xmlns="http://www.w3.org/2000/svg" xmlns:xlink="http://www.w3.org/1999/xlink" width="362" height="436" viewBox="0 0 362 436"><g class="terminator"><circle cx="26" cy="31" r="5"/></g><path class="rail" d="M31 31 H40"/><path class="rail" d="M40 31 H60"/><g class="terminal"><rect x="60" y="20" width="32" height="22" rx="11" ry="11"/><text x="76" y="35">(</text></g><path class="rail" d="M92 31 H104"/><a xlink:href="#value" href="#value"><g class="nonterminal"><rect x="104" y="20" width="56.5" height="22"/><text x="132.25" y="35">value</text></g></a><path class="rail" d="M160.5 31 H172.5"/><g class="terminal"><rect x="172.5" y="20" width="32" height="22" rx="11" ry="11"/><text x="188.5" y="35">)</text></g><path class="rail" d="M204.5 31 H302"/><path class="rail" d="M302 31 H322"/><path class="rail" d="M40 31 A10 10 0 0 1 50 41"/><path class="rail" d="M50 41 V55"/><path class="rail" d="M50 55 A10 10 0 0 0 60 65"/><a xlink:href="#cast_expr" href="#cast_expr"><g class="nonterminal"><rect x="60" y="54" width="85.7" height="22"/><text x="102.85" y="69">cast_expr</text></g></a><path class="rail" d="M145.7 65 H302"/><path class="rail" d="M302 65 A10 10 0 0 0 312 55"/><path class="rail" d="M312 55 V41"/><path class="rail" d="M312 41 A10 10 0 0 1 322 31"/><path class="rail" d="M40 31 A10 10 0 0 1 50 41"/><path class="rail" d="M50 41 V89"/><path class="rail" d="M50 89 A10 10 0 0 0 60 99"/><a xlink:href="#case_expr" href="#case_expr"><g class="nonterminal"><rect x="60" y="88" width="85.7" height="22"/><text x="102.85" y="103">case_expr</text></g></a><path class="rail" d="M145.7 99 H302"/><path class="rail" d="M302 99 A10 10 0 0 0 312 89"/><path class="rail" d="M312 89 V41"/><path class="rail" d="M312 41 A10 10 0 0 1 322 31"/><path class="rail" d="M40 31 A10 10 0 0 1 50 41"/><path class="rail" d="M50 41 V123"/><path class="rail" d="M50 123 A10 10 0 0 0 60 133"/><a xlink:href="#function_call" href="#function_call"><g class="nonterminal"><rect x="60" y="122" width="114.89999999999999" height="22"/><text x="117.44999999999999" y="137">function_call</text></g></a><path class="rail" d="M174.89999999999998 133 H302"/><path class="rail" d="M302 133 A10 10 0 0 0 312 123"/><path class="rail" d="M312 123 V41"/><path class="rail" d="M312 41 A10 10 0 0 1 322 31"/><path class="rail" d="M40 31 A10 10 0 0 1 50 41"/><path class="rail" d="M50 41 V157"/><path class="rail" d="M50 157 A10 10 0 0 0 60 167"/><g class="leaf"><rect x="60" y="156" width="93" height="22" rx="11" ry="11"/><text x="106.5" y="171">identifier</text></g><path class="rail" d="M153 167 H165"/><g class="terminal"><rect x="165" y="156" width="32" height="22" rx="11" ry="11"/><text x="181" y="171">.</text></g><path class="rail" d="M197 167 H209"/><g class="leaf"><rect x="209" y="156" width="93" height="22" rx="11" ry="11"/><text x="255.5" y="171">identifier</text></g><path class="rail" d="M302 167 A10 10 0 0 0 312 157"/><path class="rail" d="M312 157 V41"/><path class="rail" d="M312 41 A10 10 0 0 1 322 31"/><path class="rail" d="M40 31 A10 10 0 0 1 50 41"/><path class="rail" d="M50 41 V191"/><path class="rail" d="M50 191 A10 10 0 0 0 60 201"/><g class="terminal"><rect x="60" y="190" width="49.2" height="22" rx="11" ry="11"/><text x="84.6" y="205">TRUE</text></g><path class="rail" d="M109.2 201 H302"/><path class="rail" d="M302 201 A10 10 0 0 0 312 191"/><path class="rail" d="M312 191 V41"/><path class="rail" d="M312 41 A10 10 0 0 1 322 31"/><path class="rail" d="M40 31 A10 10 0 0 1 50 41"/><path class="rail" d="M50 41 V225"/><path class="rail" d="M50 225 A10 10 0 0 0 60 235"/><g class="terminal"><rect x="60" y="224" width="56.5" height="22" rx="11" ry="11"/><text x="88.25" y="239">FALSE</text></g><path class="rail" d="M116.5 235 H302"/><path class="rail" d="M302 235 A10 10 0 0 0 312 225"/><path class="rail" d="M312 225 V41"/><path class="rail" d="M312 41 A10 10 0 0 1 322 31"/><path class="rail" d="M40 31 A10 10 0 0 1 50 41"/><path class="rail" d="M50 41 V259"/><path class="rail" d="M50 259 A10 10 0 0 0 60 269"/><g class="leaf"><rect x="60" y="258" width="93" height="22" rx="11" ry="11"/><text x="106.5" y="273">identifier</text></g><path class="rail" d="M153 269 H302"/><path class="rail" d="M302 269 A10 10 0 0 0 312 259"/><path class="rail" d="M312 259 V41"/><path class="rail" d="M312 41 A10 10 0 0 1 322 31"/><path class="rail" d="M40 31 A10 10 0 0 1 50 41"/><path class="rail" d="M50 41 V293"/><path class="rail" d="M50 293 A10 10 0 0 0 60 303"/><g class="leaf"><rect x="60" y="292" width="129.5" height="22" rx="11" ry="11"/><text x="124.75" y="307">decimal_literal</text></g><path class="rail" d="M189.5 303 H302"/><path class="rail" d="M302 303 A10 10 0 0 0 312 293"/><path class="rail" d="M312 293 V41"/><path class="rail" d="M312 41 A10 10 0 0 1 322 31"/><path class="rail" d="M40 31 A10 10 0 0 1 50 41"/><path class="rail" d="M50 41 V327"/><path class="rail" d="M50 327 A10 10 0 0 0 60 337"/><g class="leaf"><rect x="60" y="326" width="129.5" height="22" rx="11" ry="11"/><text x="124.75" y="341">integer_literal</text></g><path class="rail" d="M189.5 337 H302"/><path class="rail" d="M302 337 A10 10 0 0 0 312 327"/><path class="rail" d="M312 327 V41"/><path class="rail" d="M312 41 A10 10 0 0 1 322 31"/><path class="rail" d="M40 31 A10 10 0 0 1 50 41"/><path class="rail" d="M50 41 V361"/><path class="rail" d="M50 361 A10 10 0 0 0 60 371"/><g class="leaf"><rect x="60" y="360" width="122.2" height="22" rx="11" ry="11"/><text x="121.1" y="375">string_literal</text></g><path class="rail" d="M182.2 371 H302"/><path class="rail" d="M302 371 A10 10 0 0 0 312 361"/><path class="rail" d="M312 361 V41"/><path class="rail" d="M312 41 A10 10 0 0 1 322 31"/><path class="rail" d="M40 31 A10 10 0 0 1 50 41"/><path class="rail" d="M50 41 V395"/><path class="rail" d="M50 395 A10 10 0 0 0 60 405"/><g class="terminal"><rect x="60" y="394" width="32" height="22" rx="11" ry="11"/><text x="76" y="409">?</text></g><path class="rail" d="M92 405 H302"/><path class="rail" d="M302 405 A10 10 0 0 0 312 395"/><path class="rail" d="M312 395 V41"/><path class="rail" d="M312 41 A10 10 0 0 1 322 31"/><path class="rail" d="M322 31 H331"/><g class="terminator"><circle cx="336" cy="31" r="5"/></g></svg>