<svg class="railroad" xmlns="http://www.w3.org/2000/svg" xmlns:xlink="http://www.w3.org/1999/xlink" width="469" height="62" viewBox="0 0 469 62"><g class="terminator"><circle cx="26" cy="31" r="5"/></g><path class="rail" d="M31 31 H40"/><g class="terminal"><rect x="40" y="20" width="63.8" height="22" rx="11" ry="11"/><text x="71.9" y="35">RENAME</text></g><path class="rail" d="M103.8 31 H115.8"/><g class="terminal"><rect x="115.8" y="20" width="56.5" height="22" rx="11" ry="11"/><text x="144.05" y="35">TABLE</text></g><path class="rail" d="M172.3 31 H184.3"/><g class="leaf"><rect x="184.3" y="20" width="93" height="22" rx="11" ry="11"/><text x="230.8" y="35">identifier</text></g><path class="rail" d="M277.3 31 H289.3"/><g class="terminal"><rect x="289.3" y="20" width="34.6" height="22" rx="11" ry="11"/><text x="306.6" y="35">TO</text></g><path class="rail" d="M323.90000000000003 31 H335.90000000000003"/><g class="leaf"><rect x="335.90000000000003" y="20" width="93" height="22" rx="11" ry="11"/><text x="382.40000000000003" y="35">identifier</text></g><path class="rail" d="M428.9 31 H437.9"/><g class="terminator"><circle cx="442.9" cy="31" r="5"/></g></svg>