<svg class="railroad" xmlns="http://www.w3.org/2000/svg" xmlns:xlink="http://www.w3.org/1999/xlink" width="588" height="151" viewBox="0 0 588 151"><g class="terminator"><circle cx="26" cy="31" r="5"/></g><path class="rail" d="M31 31 H40"/><a xlink:href="#select_statement" href="#select_statement"><g class="nonterminal"><rect x="40" y="20" width="136.8" height="22"/><text x="108.4" y="35">select_statement</text></g></a><path class="rail" d="M176.8 31 H188.8"/><path class="rail" d="M188.8 31 H208.8"/><path class="rail" d="M208.8 31 H528"/><path class="rail" d="M528 31 H548"/><path class="rail" d="M188.8 31 A10 10 0 0 1 198.8 41"/><path class="rail" d="M198.8 41 V44"/><path class="rail" d="M198.8 44 A10 10 0 0 0 208.8 54"/><path class="rail" d="M208.8 54 H218.8"/><path class="rail" d="M218.8 54 H238.8"/><g class="terminal"><rect x="238.8" y="43" width="56.5" height="22" rx="11" ry="11"/><text x="267.05" y="58">UNION</text></g><path class="rail" d="M295.3 54 H307.3"/><g class="terminal"><rect x="307.3" y="43" width="41.9" height="22" rx="11" ry="11"/><text x="328.25" y="58">ALL</text></g><path class="rail" d="M349.2 54 H361.2"/><a xlink:href="#select_statement" href="#select_statement"><g class="nonterminal"><rect x="361.2" y="43" width="136.8" height="22"/><text x="429.6" y="58">select_statement</text></g></a><path class="rail" d="M498.00000000000006 54 H518"/><path class="rail" d="M218.8 54 A10 10 0 0 1 228.8 64"/><path class="rail" d="M228.8 64 V78"/><path class="rail" d="M228.8 78 A10 10 0 0 0 238.8 88"/><g class="terminal"><rect x="238.8" y="77" width="56.5" height="22" rx="11" ry="11"/><text x="267.05" y="92">UNION</text></g><path class="rail" d="M295.3 88 H307.3"/><a xlink:href="#select_statement" href="#select_statement"><g class="nonterminal"><rect x="307.3" y="77" width="136.8" height="22"/><text x="375.70000000000005" y="92">select_statement</text></g></a><path class="rail" d="M444.1 88 H498.00000000000006"/><path class="rail" d="M498.00000000000006 88 A10 10 0 0 0 508.00000000000006 78"/><path class="rail" d="M508.00000000000006 78 V64"/><path class="rail" d="M508.00000000000006 64 A10 10 0 0 1 518 54"/><path class="rail" d="M518 54 H528"/><path class="rail" d="M518 54 A10 10 0 0 0 528 64"/><path class="rail" d="M528 64 V111"/><path class="rail" d="M528 111 A10 10 0 0 0 518 121"/><path class="rail" d="M218.8 121 H518"/><path class="arrow" d="M373.40000000000003 117 L363.40000000000003 121 L373.40000000000003 125 Z"/><path class="rail" d="M218.8 121 A10 10 0 0 0 208.8 111"/><path class="rail" d="M208.8 111 V64"/><path class="rail" d="M208.8 64 A10 10 0 0 0 218.8 54"/><path class="rail" d="M528 54 A10 10 0 0 0 538 44"/><path class="rail" d="M538 44 V41"/><path class="rail" d="M538 41 A10 10 0 0 1 548 31"/><path class="rail" d="M548 31 H557"/><g class="terminator"><circle cx="562" cy="31" r="5"/></g></svg>