<svg class="railroad" xmlns="http://www.w3.org/2000/svg" xmlns:xlink="http://www.w3.org/1999/xlink" width="905" height="96" viewBox="0 0 905 96"><g class="terminator"><circle cx="26" cy="31" r="5"/></g><path class="rail" d="M31 31 H40"/><path class="rail" d="M40 31 H60"/><g class="terminal"><rect x="60" y="20" width="63.8" height="22" rx="11" ry="11"/><text x="91.9" y="35">SELECT</text></g><path class="rail" d="M123.8 31 H135.8"/><a xlink:href="#distinct_opt" href="#distinct_opt"><g class="nonterminal"><rect x="135.8" y="20" width="107.6" height="22"/><text x="189.60000000000002" y="35">distinct_opt</text></g></a><path class="rail" d="M243.4 31 H255.4"/><a xlink:href="#column_list" href="#column_list"><g class="nonterminal"><rect x="255.4" y="20" width="100.3" height="22"/><text x="305.55" y="35">column_list</text></g></a><path class="rail" d="M355.7 31 H367.7"/><g class="terminal"><rect x="367.7" y="20" width="49.2" height="22" rx="11" ry="11"/><text x="392.3" y="35">INTO</text></g><path class="rail" d="M416.9 31 H428.9"/><g class="leaf"><rect x="428.9" y="20" width="93" height="22" rx="11" ry="11"/><text x="475.4" y="35">identifier</text></g><path class="rail" d="M521.9 31 H533.9"/><g class="terminal"><rect x="533.9" y="20" width="49.2" height="22" rx="11" ry="11"/><text x="558.5" y="35">FROM</text></g><path class="rail" d="M583.1 31 H595.1"/><a xlink:href="#table_ref_list" href="#table_ref_list"><g class="nonterminal"><rect x="595.1" y="20" width="122.2" height="22"/><text x="656.2" y="35">table_ref_list</text></g></a><path class="rail" d="M717.3000000000001 31 H729.3000000000001"/><a xlink:href="#modifier_list" href="#modifier_list"><g class="nonterminal"><rect x="729.3000000000001" y="20" width="114.89999999999999" height="22"/><text x="786.7500000000001" y="35">modifier_list</text></g></a><path class="rail" d="M844.1999999999999 31 H864.1999999999999"/><path class="rail" d="M40 31 A10 10 0 0 1 50 41"/><path class="rail" d="M50 41 V55"/><path class="rail" d="M50 55 A10 10 0 0 0 60 65"/><g class="terminal"><rect x="60" y="54" width="63.8" height="22" rx="11" ry="11"/><text x="91.9" y="69">SELECT</text></g><path class="rail" d="M123.8 65 H135.8"/><a xlink:href="#distinct_opt" href="#distinct_opt"><g class="nonterminal"><rect x="135.8" y="54" width="107.6" height="22"/><text x="189.60000000000002" y="69">distinct_opt</text></g></a><path class="rail" d="M243.4 65 H255.4"/><a xlink:href="#column_list" href="#column_list"><g class="nonterminal"><rect x="255.4" y="54" width="100.3" height="22"/><text x="305.55" y="69">column_list</text></g></a><path class="rail" d="M355.7 65 H367.7"/><g class="terminal"><rect x="367.7" y="54" width="49.2" height="22" rx="11" ry="11"/><text x="392.3" y="69">FROM</text></g><path class="rail" d="M416.9 65 H428.9"/><a xlink:href="#table_ref_list" href="#table_ref_list"><g class="nonterminal"><rect x="428.9" y="54" width="122.2" height="22"/><text x="490" y="69">table_ref_list</text></g></a><path class="rail" d="M551.1 65 H563.1"/><a xlink:href="#modifier_list" href="#modifier_list"><g class="nonterminal"><rect x="563.1" y="54" width="114.89999999999999" height="22"/><text x="620.5500000000001" y="69">modifier_list</text></g></a><path class="rail" d="M678 65 H844.1999999999999"/><path class="rail" d="M844.1999999999999 65 A10 10 0 0 0 854.1999999999999 55"/><path class="rail" d="M854.1999999999999 55 V41"/><path class="rail" d="M854.1999999999999 41 A10 10 0 0 1 864.1999999999999 31"/><path class="rail" d="M864.1999999999999 31 H873.1999999999999"/><g class="terminator"><circle cx="878.1999999999999" cy="31" r="5"/></g></svg>