<svg class="railroad" xmlns="http://www.w3.org/2000/svg" xmlns:xlink="http://www.w3.org/1999/xlink" width="301" height="470" viewBox="0 0 301 470"><g class="terminator"><circle cx="26" cy="31" r="5"/></g><path class="rail" d="M31 31 H40"/><path class="rail" d="M40 31 H60"/><a xlink:href="#update_statement" href="#update_statement"><g class="nonterminal"><rect x="60" y="20" width="136.8" height="22"/><text x="128.4" y="35">update_statement</text></g></a><path class="rail" d="M196.8 31 H240.6"/><path class="rail" d="M240.6 31 H260.6"/><path class="rail" d="M40 31 A10 10 0 0 1 50 41"/><path class="rail" d="M50 41 V55"/><path class="rail" d="M50 55 A10 10 0 0 0 60 65"/><a xlink:href="#delete_statement" href="#delete_statement"><g class="nonterminal"><rect x="60" y="54" width="136.8" height="22"/><text x="128.4" y="69">delete_statement</text></g></a><path class="rail" d="M196.8 65 H240.6"/><path class="rail" d="M240.6 65 A10 10 0 0 0 250.6 55"/><path class="rail" d="M250.6 55 V41"/><path class="rail" d="M250.6 41 A10 10 0 0 1 260.6 31"/><path class="rail" d="M40 31 A10 10 0 0 1 50 41"/><path class="rail" d="M50 41 V89"/><path class="rail" d="M50 89 A10 10 0 0 0 60 99"/><a xlink:href="#insert_statement" href="#insert_statement"><g class="nonterminal"><rect x="60" y="88" width="136.8" height="22"/><text x="128.4" y="103">insert_statement</text></g></a><path class="rail" d="M196.8 99 H240.6"/><path class="rail" d="M240.6 99 A10 10 0 0 0 250.6 89"/><path class="rail" d="M250.6 89 V41"/><path class="rail" d="M250.6 41 A10 10 0 0 1 260.6 31"/><path class="rail" d="M40 31 A10 10 0 0 1 50 41"/><path class="rail" d="M50 41 V123"/><path class="rail" d="M50 123 A10 10 0 0 0 60 133"/><a xlink:href="#drop_table_statement" href="#drop_table_statement"><g class="nonterminal"><rect x="60" y="122" width="166" height="22"/><text x="143" y="137">drop_table_statement</text></g></a><path class="rail" d="M226 133 H240.6"/><path class="rail" d="M240.6 133 A10 10 0 0 0 250.6 123"/><path class="rail" d="M250.6 123 V41"/><path class="rail" d="M250.6 41 A10 10 0 0 1 260.6 31"/><path class="rail" d="M40 31 A10 10 0 0 1 50 41"/><path class="rail" d="M50 41 V157"/><path class="rail" d="M50 157 A10 10 0 0 0 60 167"/><a xlink:href="#drop_index_statement" href="#drop_index_statement"><g class="nonterminal"><rect x="60" y="156" width="166" height="22"/><text x="143" y="171">drop_index_statement</text></g></a><path class="rail" d="M226 167 H240.6"/><path class="rail" d="M240.6 167 A10 10 0 0 0 250.6 157"/><path class="rail" d="M250.6 157 V41"/><path class="rail" d="M250.6 41 A10 10 0 0 1 260.6 31"/><path class="rail" d="M40 31 A10 10 0 0 1 50 41"/><path class="rail" d="M50 41 V191"/><path class="rail" d="M50 191 A10 10 0 0 0 60 201"/><a xlink:href="#create_index_statement" href="#create_index_statement"><g class="nonterminal"><rect x="60" y="190" width="180.6" height="22"/><text x="150.3" y="205">create_index_statement</text></g></a><path class="rail" d="M240.6 201 A10 10 0 0 0 250.6 191"/><path class="rail" d="M250.6 191 V41"/><path class="rail" d="M250.6 41 A10 10 0 0 1 260.6 31"/><path class="rail" d="M40 31 A10 10 0 0 1 50 41"/><path class="rail" d="M50 41 V225"/><path class="rail" d="M50 225 A10 10 0 0 0 60 235"/><a xlink:href="#alter_table_statement" href="#alter_table_statement"><g class="nonterminal"><rect x="60" y="224" width="173.29999999999998" height="22"/><text x="146.64999999999998" y="239">alter_table_statement</text></g></a><path class="rail" d="M233.29999999999998 235 H240.6"/><path class="rail" d="M240.6 235 A10 10 0 0 0 250.6 225"/><path class="rail" d="M250.6 225 V41"/><path class="rail" d="M250.6 41 A10 10 0 0 1 260.6 31"/><path class="rail" d="M40 31 A10 10 0 0 1 50 41"/><path class="rail" d="M50 41 V259"/><path class="rail" d="M50 259 A10 10 0 0 0 60 269"/><a xlink:href="#rename_statement" href="#rename_statement"><g class="nonterminal"><rect x="60" y="258" width="136.8" height="22"/><text x="128.4" y="273">rename_statement</text></g></a><path class="rail" d="M196.8 269 H240.6"/><path class="rail" d="M240.6 269 A10 10 0 0 0 250.6 259"/><path class="rail" d="M250.6 259 V41"/><path class="rail" d="M250.6 41 A10 10 0 0 1 260.6 31"/><path class="rail" d="M40 31 A10 10 0 0 1 50 41"/><path class="rail" d="M50 41 V293"/><path class="rail" d="M50 293 A10 10 0 0 0 60 303"/><a xlink:href="#maint_statement" href="#maint_statement"><g class="nonterminal"><rect x="60" y="292" width="129.5" height="22"/><text x="124.75" y="307">maint_statement</text></g></a><path class="rail" d="M189.5 303 H240.6"/><path class="rail" d="M240.6 303 A10 10 0 0 0 250.6 293"/><path class="rail" d="M250.6 293 V41"/><path class="rail" d="M250.6 41 A10 10 0 0 1 260.6 31"/><path class="rail" d="M40 31 A10 10 0 0 1 50 41"/><path class="rail" d="M50 41 V327"/><path class="rail" d="M50 327 A10 10 0 0 0 60 337"/><a xlink:href="#export_statement" href="#export_statement"><g class="nonterminal"><rect x="60" y="326" width="136.8" height="22"/><text x="128.4" y="341">export_statement</text></g></a><path class="rail" d="M196.8 337 H240.6"/><path class="rail" d="M240.6 337 A10 10 0 0 0 250.6 327"/><path class="rail" d="M250.6 327 V41"/><path class="rail" d="M250.6 41 A10 10 0 0 1 260.6 31"/><path class="rail" d="M40 31 A10 10 0 0 1 50 41"/><path class="rail" d="M50 41 V361"/><path class="rail" d="M50 361 A10 10 0 0 0 60 371"/><a xlink:href="#import_statement" href="#import_statement"><g class="nonterminal"><rect x="60" y="360" width="136.8" height="22"/><text x="128.4" y="375">import_statement</text></g></a><path class="rail" d="M196.8 371 H240.6"/><path class="rail" d="M240.6 371 A10 10 0 0 0 250.6 361"/><path class="rail" d="M250.6 361 V41"/><path class="rail" d="M250.6 41 A10 10 0 0 1 260.6 31"/><path class="rail" d="M40 31 A10 10 0 0 1 50 41"/><path class="rail" d="M50 41 V395"/><path class="rail" d="M50 395 A10 10 0 0 0 60 405"/><a xlink:href="#transaction_statement" href="#transaction_statement"><g class="nonterminal"><rect x="60" y="394" width="173.29999999999998" height="22"/><text x="146.64999999999998" y="409">transaction_statement</text></g></a><path class="rail" d="M233.29999999999998 405 H240.6"/><path class="rail" d="M240.6 405 A10 10 0 0 0 250.6 395"/><path class="rail" d="M250.6 395 V41"/><path class="rail" d="M250.6 41 A10 10 0 0 1 260.6 31"/><path class="rail" d="M40 31 A10 10 0 0 1 50 41"/><path class="rail" d="M50 41 V429"/><path class="rail" d="M50 429 A10 10 0 0 0 60 439"/><a xlink:href="#select_chain" href="#select_chain"><g class="nonterminal"><rect x="60" y="428" width="107.6" height="22"/><text x="113.8" y="443">select_chain</text></g></a><path class="rail" d="M167.6 439 H240.6"/><path class="rail" d="M240.6 439 A10 10 0 0 0 250.6 429"/><path class="rail" d="M250.6 429 V41"/><path class="rail" d="M250.6 41 A10 10 0 0 1 260.6 31"/><path class="rail" d="M260.6 31 H269.6"/><g class="terminator"><circle cx="274.6" cy="31" r="5"/></g></svg>