<svg class="railroad" xmlns="http://www.w3.org/2000/svg" xmlns:xlink="http://www.w3.org/1999/xlink" width="588" height="117" viewBox="0 0 588 117"><g class="terminator"><circle cx="26" cy="31" r="5"/></g><path class="rail" d="M31 31 H40"/><a xlink:href="#table_ref" href="#table_ref"><g class="nonterminal"><rect x="40" y="20" width="85.7" height="22"/><text x="82.85" y="35">table_ref</text></g></a><path class="rail" d="M125.7 31 H137.7"/><path class="rail" d="M137.7 31 H157.7"/><path class="rail" d="M157.7 31 H527.3"/><path class="rail" d="M527.3 31 H547.3"/><path class="rail" d="M137.7 31 A10 10 0 0 1 147.7 41"/><path class="rail" d="M147.7 41 V44"/><path class="rail" d="M147.7 44 A10 10 0 0 0 157.7 54"/><path class="rail" d="M157.7 54 H167.7"/><a xlink:href="#join_type" href="#join_type"><g class="nonterminal"><rect x="167.7" y="43" width="85.7" height="22"/><text x="210.54999999999998" y="58">join_type</text></g></a><path class="rail" d="M253.39999999999998 54 H265.4"/><a xlink:href="#table_ref" href="#table_ref"><g class="nonterminal"><rect x="265.4" y="43" width="85.7" height="22"/><text x="308.25" y="58">table_ref</text></g></a><path class="rail" d="M351.09999999999997 54 H363.09999999999997"/><g class="terminal"><rect x="363.09999999999997" y="43" width="34.6" height="22" rx="11" ry="11"/><text x="380.4" y="58">ON</text></g><path class="rail" d="M397.7 54 H409.7"/><a xlink:href="#predicate_or" href="#predicate_or"><g class="nonterminal"><rect x="409.7" y="43" width="107.6" height="22"/><text x="463.5" y="58">predicate_or</text></g></a><path class="rail" d="M517.3 54 H527.3"/><path class="rail" d="M517.3 54 A10 10 0 0 0 527.3 64"/><path class="rail" d="M527.3 64 V77"/><path class="rail" d="M527.3 77 A10 10 0 0 0 517.3 87"/><path class="rail" d="M167.7 87 H517.3"/><path class="arrow" d="M347.5 83 L337.5 87 L347.5 91 Z"/><path class="rail" d="M167.7 87 A10 10 0 0 0 157.7 77"/><path class="rail" d="M157.7 77 V64"/><path class="rail" d="M157.7 64 A10 10 0 0 0 167.7 54"/><path class="rail" d="M527.3 54 A10 10 0 0 0 537.3 44"/><path class="rail" d="M537.3 44 V41"/><path class="rail" d="M537.3 41 A10 10 0 0 1 547.3 31"/><path class="rail" d="M547.3 31 H556.3"/><g class="terminator"><circle cx="561.3" cy="31" r="5"/></g></svg>