<svg class="railroad" xmlns="http://www.w3.org/2000/svg" xmlns:xlink="http://www.w3.org/1999/xlink" width="362" height="96" viewBox="0 0 362 96"><g class="terminator"><circle cx="26" cy="31" r="5"/></g><path class="rail" d="M31 31 H40"/><path class="rail" d="M40 31 H60"/><g class="leaf"><rect x="60" y="20" width="93" height="22" rx="11" ry="11"/><text x="106.5" y="35">identifier</text></g><path class="rail" d="M153 31 H165"/><g class="terminal"><rect x="165" y="20" width="32" height="22" rx="11" ry="11"/><text x="181" y="35">\</text></g><path class="rail" d="M197 31 H209"/><g class="leaf"><rect x="209" y="20" width="93" height="22" rx="11" ry="11"/><text x="255.5" y="35">identifier</text></g><path class="rail" d="M302 31 H322"/><path class="rail" d="M40 31 A10 10 0 0 1 50 41"/><path class="rail" d="M50 41 V55"/><path class="rail" d="M50 55 A10 10 0 0 0 60 65"/><g class="leaf"><rect x="60" y="54" width="93" height="22" rx="11" ry="11"/><text x="106.5" y="69">identifier</text></g><path class="rail" d="M153 65 H302"/><path class="rail" d="M302 65 A10 10 0 0 0 312 55"/><path class="rail" d="M312 55 V41"/><path class="rail" d="M312 41 A10 10 0 0 1 322 31"/><path class="rail" d="M322 31 H331"/><g class="terminator"><circle cx="336" cy="31" r="5"/></g></svg>