<svg class="railroad" xmlns="http://www.w3.org/2000/svg" xmlns:xlink="http://www.w3.org/1999/xlink" width="365" height="130" viewBox="0 0 365 130"><g class="terminator"><circle cx="26" cy="31" r="5"/></g><path class="rail" d="M31 31 H40"/><path class="rail" d="M40 31 H60"/><a xlink:href="#table_name" href="#table_name"><g class="nonterminal"><rect x="60" y="20" width="93" height="22"/><text x="106.5" y="35">table_name</text></g></a><path class="rail" d="M153 31 H165"/><g class="terminal"><rect x="165" y="20" width="34.6" height="22" rx="11" ry="11"/><text x="182.3" y="35">AS</text></g><path class="rail" d="M199.6 31 H211.6"/><g class="leaf"><rect x="211.6" y="20" width="93" height="22" rx="11" ry="11"/><text x="258.1" y="35">identifier</text></g><path class="rail" d="M304.6 31 H324.6"/><path class="rail" d="M40 31 A10 10 0 0 1 50 41"/><path class="rail" d="M50 41 V55"/><path class="rail" d="M50 55 A10 10 0 0 0 60 65"/><a xlink:href="#table_name" href="#table_name"><g class="nonterminal"><rect x="60" y="54" width="93" height="22"/><text x="106.5" y="69">table_name</text></g></a><path class="rail" d="M153 65 H165"/><g class="leaf"><rect x="165" y="54" width="93" height="22" rx="11" ry="11"/><text x="211.5" y="69">identifier</text></g><path class="rail" d="M258 65 H304.6"/><path class="rail" d="M304.6 65 A10 10 0 0 0 314.6 55"/><path class="rail" d="M314.6 55 V41"/><path class="rail" d="M314.6 41 A10 10 0 0 1 324.6 31"/><path class="rail" d="M40 31 A10 10 0 0 1 50 41"/><path class="rail" d="M50 41 V89"/><path class="rail" d="M50 89 A10 10 0 0 0 60 99"/><a xlink:href="#table_name" href="#table_name"><g class="nonterminal"><rect x="60" y="88" width="93" height="22"/><text x="106.5" y="103">table_name</text></g></a><path class="rail" d="M153 99 H304.6"/><path class="rail" d="M304.6 99 A10 10 0 0 0 314.6 89"/><path class="rail" d="M314.6 89 V41"/><path class="rail" d="M314.6 41 A10 10 0 0 1 324.6 31"/><path class="rail" d="M324.6 31 H333.6"/><g class="terminator"><circle cx="338.6" cy="31" r="5"/></g></svg>