<svg class="railroad" xmlns="http://www.w3.org/2000/svg" xmlns:xlink="http://www.w3.org/1999/xlink" width="230" height="96" viewBox="0 0 230 96"><g class="terminator"><circle cx="26" cy="31" r="5"/></g><path class="rail" d="M31 31 H40"/><path class="rail" d="M40 31 H50"/><a xlink:href="#table_or_joined" href="#table_or_joined"><g class="nonterminal"><rect x="50" y="20" width="129.5" height="22"/><text x="114.75" y="35">table_or_joined</text></g></a><path class="rail" d="M179.5 31 H189.5"/><path class="rail" d="M179.5 31 A10 10 0 0 0 189.5 41"/><path class="rail" d="M189.5 41 V55"/><path class="rail" d="M189.5 55 A10 10 0 0 0 179.5 65"/><path class="rail" d="M179.5 65 H131.5"/><g class="terminal"><rect x="99" y="54" width="32" height="22" rx="11" ry="11"/><text x="115" y="69">,</text></g><path class="rail" d="M50 65 H99"/><path class="arrow" d="M119.75 61 L109.75 65 L119.75 69 Z"/><path class="rail" d="M50 65 A10 10 0 0 0 40 55"/><path class="rail" d="M40 55 V41"/><path class="rail" d="M40 41 A10 10 0 0 0 50 31"/><path class="rail" d="M189.5 31 H198.5"/><g class="terminator"><circle cx="203.5" cy="31" r="5"/></g></svg>