<svg class="railroad" xmlns="http://www.w3.org/2000/svg" xmlns:xlink="http://www.w3.org/1999/xlink" width="152" height="74" viewBox="0 0 152 74"><g class="terminator"><circle cx="26" cy="20" r="5"/></g><path class="rail" d="M31 20 H40"/><path class="rail" d="M40 20 H60"/><path class="rail" d="M60 20 H92"/><path class="rail" d="M92 20 H112"/><path class="rail" d="M40 20 A10 10 0 0 1 50 30"/><path class="rail" d="M50 30 V33"/><path class="rail" d="M50 33 A10 10 0 0 0 60 43"/><g class="terminal"><rect x="60" y="32" width="32" height="22" rx="11" ry="11"/><text x="76" y="47">;</text></g><path class="rail" d="M92 43 A10 10 0 0 0 102 33"/><path class="rail" d="M102 33 V30"/><path class="rail" d="M102 30 A10 10 0 0 1 112 20"/><path class="rail" d="M112 20 H121"/><g class="terminator"><circle cx="126" cy="20" r="5"/></g></svg>