<svg class="railroad" xmlns="http://www.w3.org/2000/svg" xmlns:xlink="http://www.w3.org/1999/xlink" width="289" height="198" viewBox="0 0 289 198"><g class="terminator"><circle cx="26" cy="31" r="5"/></g><path class="rail" d="M31 31 H40"/><path class="rail" d="M40 31 H60"/><g class="terminal"><rect x="60" y="20" width="56.5" height="22" rx="11" ry="11"/><text x="88.25" y="35">START</text></g><path class="rail" d="M116.5 31 H128.5"/><g class="terminal"><rect x="128.5" y="20" width="100.3" height="22" rx="11" ry="11"/><text x="178.65" y="35">TRANSACTION</text></g><path class="rail" d="M228.8 31 H248.8"/><path class="rail" d="M40 31 A10 10 0 0 1 50 41"/><path class="rail" d="M50 41 V55"/><path class="rail" d="M50 55 A10 10 0 0 0 60 65"/><g class="terminal"><rect x="60" y="54" width="63.8" height="22" rx="11" ry="11"/><text x="91.9" y="69">COMMIT</text></g><path class="rail" d="M123.8 65 H135.8"/><g class="terminal"><rect x="135.8" y="54" width="49.2" height="22" rx="11" ry="11"/><text x="160.4" y="69">WORK</text></g><path class="rail" d="M185 65 H228.8"/><path class="rail" d="M228.8 65 A10 10 0 0 0 238.8 55"/><path class="rail" d="M238.8 55 V41"/><path class="rail" d="M238.8 41 A10 10 0 0 1 248.8 31"/><path class="rail" d="M40 31 A10 10 0 0 1 50 41"/><path class="rail" d="M50 41 V89"/><path class="rail" d="M50 89 A10 10 0 0 0 60 99"/><g class="terminal"><rect x="60" y="88" width="63.8" height="22" rx="11" ry="11"/><text x="91.9" y="103">COMMIT</text></g><path class="rail" d="M123.8 99 H228.8"/><path class="rail" d="M228.8 99 A10 10 0 0 0 238.8 89"/><path class="rail" d="M238.8 89 V41"/><path class="rail" d="M238.8 41 A10 10 0 0 1 248.8 31"/><path class="rail" d="M40 31 A10 10 0 0 1 50 41"/><path class="rail" d="M50 41 V123"/><path class="rail" d="M50 123 A10 10 0 0 0 60 133"/><g class="terminal"><rect x="60" y="122" width="78.4" height="22" rx="11" ry="11"/><text x="99.2" y="137">ROLLBACK</text></g><path class="rail" d="M138.4 133 H150.4"/><g class="terminal"><rect x="150.4" y="122" width="49.2" height="22" rx="11" ry="11"/><text x="175" y="137">WORK</text></g><path class="rail" d="M199.60000000000002 133 H228.8"/><path class="rail" d="M228.8 133 A10 10 0 0 0 238.8 123"/><path class="rail" d="M238.8 123 V41"/><path class="rail" d="M238.8 41 A10 10 0 0 1 248.8 31"/><path class="rail" d="M40 31 A10 10 0 0 1 50 41"/><path class="rail" d="M50 41 V157"/><path class="rail" d="M50 157 A10 10 0 0 0 60 167"/><g class="terminal"><rect x="60" y="156" width="78.4" height="22" rx="11" ry="11"/><text x="99.2" y="171">ROLLBACK</text></g><path class="rail" d="M138.4 167 H228.8"/><path class="rail" d="M228.8 167 A10 10 0 0 0 238.8 157"/><path class="rail" d="M238.8 157 V41"/><path class="rail" d="M238.8 41 A10 10 0 0 1 248.8 31"/><path class="rail" d="M248.8 31 H257.8"/><g class="terminator"><circle cx="262.8" cy="31" r="5"/></g></svg>