<svg class="railroad" xmlns="http://www.w3.org/2000/svg" xmlns:xlink="http://www.w3.org/1999/xlink" width="199" height="130" viewBox="0 0 199 130"><g class="terminator"><circle cx="26" cy="31" r="5"/></g><path class="rail" d="M31 31 H40"/><path class="rail" d="M40 31 H60"/><g class="terminal"><rect x="60" y="20" width="71.1" height="22" rx="11" ry="11"/><text x="95.55" y="35">LEADING</text></g><path class="rail" d="M131.1 31 H138.4"/><path class="rail" d="M138.4 31 H158.4"/><path class="rail" d="M40 31 A10 10 0 0 1 50 41"/><path class="rail" d="M50 41 V55"/><path class="rail" d="M50 55 A10 10 0 0 0 60 65"/><g class="terminal"><rect x="60" y="54" width="78.4" height="22" rx="11" ry="11"/><text x="99.2" y="69">TRAILING</text></g><path class="rail" d="M138.4 65 A10 10 0 0 0 148.4 55"/><path class="rail" d="M148.4 55 V41"/><path class="rail" d="M148.4 41 A10 10 0 0 1 158.4 31"/><path class="rail" d="M40 31 A10 10 0 0 1 50 41"/><path class="rail" d="M50 41 V89"/><path class="rail" d="M50 89 A10 10 0 0 0 60 99"/><g class="terminal"><rect x="60" y="88" width="49.2" height="22" rx="11" ry="11"/><text x="84.6" y="103">BOTH</text></g><path class="rail" d="M109.2 99 H138.4"/><path class="rail" d="M138.4 99 A10 10 0 0 0 148.4 89"/><path class="rail" d="M148.4 89 V41"/><path class="rail" d="M148.4 41 A10 10 0 0 1 158.4 31"/><path class="rail" d="M158.4 31 H167.4"/><g class="terminator"><circle cx="172.4" cy="31" r="5"/></g></svg>