<svg class="railroad" xmlns="http://www.w3.org/2000/svg" xmlns:xlink="http://www.w3.org/1999/xlink" width="170" height="96" viewBox="0 0 170 96"><g class="terminator"><circle cx="26" cy="31" r="5"/></g><path class="rail" d="M31 31 H40"/><path class="rail" d="M40 31 H60"/><g class="terminal"><rect x="60" y="20" width="49.2" height="22" rx="11" ry="11"/><text x="84.6" y="35">FROM</text></g><path class="rail" d="M109.2 31 H129.2"/><path class="rail" d="M40 31 A10 10 0 0 1 50 41"/><path class="rail" d="M50 41 V55"/><path class="rail" d="M50 55 A10 10 0 0 0 60 65"/><g class="terminal"><rect x="60" y="54" width="32" height="22" rx="11" ry="11"/><text x="76" y="69">,</text></g><path class="rail" d="M92 65 H109.2"/><path class="rail" d="M109.2 65 A10 10 0 0 0 119.2 55"/><path class="rail" d="M119.2 55 V41"/><path class="rail" d="M119.2 41 A10 10 0 0 1 129.2 31"/><path class="rail" d="M129.2 31 H138.2"/><g class="terminator"><circle cx="143.2" cy="31" r="5"/></g></svg>