<svg class="railroad" xmlns="http://www.w3.org/2000/svg" xmlns:xlink="http://www.w3.org/1999/xlink" width="199" height="436" viewBox="0 0 199 436"><g class="terminator"><circle cx="26" cy="31" r="5"/></g><path class="rail" d="M31 31 H40"/><path class="rail" d="M40 31 H60"/><g class="terminal"><rect x="60" y="20" width="71.1" height="22" rx="11" ry="11"/><text x="95.55" y="35">VARCHAR</text></g><path class="rail" d="M131.1 31 H138.4"/><path class="rail" d="M138.4 31 H158.4"/><path class="rail" d="M40 31 A10 10 0 0 1 50 41"/><path class="rail" d="M50 41 V55"/><path class="rail" d="M50 55 A10 10 0 0 0 60 65"/><g class="terminal"><rect x="60" y="54" width="49.2" height="22" rx="11" ry="11"/><text x="84.6" y="69">CHAR</text></g><path class="rail" d="M109.2 65 H138.4"/><path class="rail" d="M138.4 65 A10 10 0 0 0 148.4 55"/><path class="rail" d="M148.4 55 V41"/><path class="rail" d="M148.4 41 A10 10 0 0 1 158.4 31"/><path class="rail" d="M40 31 A10 10 0 0 1 50 41"/><path class="rail" d="M50 41 V89"/><path class="rail" d="M50 89 A10 10 0 0 0 60 99"/><g class="terminal"><rect x="60" y="88" width="71.1" height="22" rx="11" ry="11"/><text x="95.55" y="103">INTEGER</text></g><path class="rail" d="M131.1 99 H138.4"/><path class="rail" d="M138.4 99 A10 10 0 0 0 148.4 89"/><path class="rail" d="M148.4 89 V41"/><path class="rail" d="M148.4 41 A10 10 0 0 1 158.4 31"/><path class="rail" d="M40 31 A10 10 0 0 1 50 41"/><path class="rail" d="M50 41 V123"/><path class="rail" d="M50 123 A10 10 0 0 0 60 133"/><g class="terminal"><rect x="60" y="122" width="78.4" height="22" rx="11" ry="11"/><text x="99.2" y="137">SMALLINT</text></g><path class="rail" d="M138.4 133 A10 10 0 0 0 148.4 123"/><path class="rail" d="M148.4 123 V41"/><path class="rail" d="M148.4 41 A10 10 0 0 1 158.4 31"/><path class="rail" d="M40 31 A10 10 0 0 1 50 41"/><path class="rail" d="M50 41 V157"/><path class="rail" d="M50 157 A10 10 0 0 0 60 167"/><g class="terminal"><rect x="60" y="156" width="78.4" height="22" rx="11" ry="11"/><text x="99.2" y="171">LARGEINT</text></g><path class="rail" d="M138.4 167 A10 10 0 0 0 148.4 157"/><path class="rail" d="M148.4 157 V41"/><path class="rail" d="M148.4 41 A10 10 0 0 1 158.4 31"/><path class="rail" d="M40 31 A10 10 0 0 1 50 41"/><path class="rail" d="M50 41 V191"/><path class="rail" d="M50 191 A10 10 0 0 0 60 201"/><g class="terminal"><rect x="60" y="190" width="56.5" height="22" rx="11" ry="11"/><text x="88.25" y="205">FLOAT</text></g><path class="rail" d="M116.5 201 H138.4"/><path class="rail" d="M138.4 201 A10 10 0 0 0 148.4 191"/><path class="rail" d="M148.4 191 V41"/><path class="rail" d="M148.4 41 A10 10 0 0 1 158.4 31"/><path class="rail" d="M40 31 A10 10 0 0 1 50 41"/><path class="rail" d="M50 41 V225"/><path class="rail" d="M50 225 A10 10 0 0 0 60 235"/><g class="terminal"><rect x="60" y="224" width="71.1" height="22" rx="11" ry="11"/><text x="95.55" y="239">BOOLEAN</text></g><path class="rail" d="M131.1 235 H138.4"/><path class="rail" d="M138.4 235 A10 10 0 0 0 148.4 225"/><path class="rail" d="M148.4 225 V41"/><path class="rail" d="M148.4 41 A10 10 0 0 1 158.4 31"/><path class="rail" d="M40 31 A10 10 0 0 1 50 41"/><path class="rail" d="M50 41 V259"/><path class="rail" d="M50 259 A10 10 0 0 0 60 269"/><g class="terminal"><rect x="60" y="258" width="49.2" height="22" rx="11" ry="11"/><text x="84.6" y="273">DATE</text></g><path class="rail" d="M109.2 269 H138.4"/><path class="rail" d="M138.4 269 A10 10 0 0 0 148.4 259"/><path class="rail" d="M148.4 259 V41"/><path class="rail" d="M148.4 41 A10 10 0 0 1 158.4 31"/><path class="rail" d="M40 31 A10 10 0 0 1 50 41"/><path class="rail" d="M50 41 V293"/><path class="rail" d="M50 293 A10 10 0 0 0 60 303"/><g class="terminal"><rect x="60" y="292" width="49.2" height="22" rx="11" ry="11"/><text x="84.6" y="307">TIME</text></g><path class="rail" d="M109.2 303 H138.4"/><path class="rail" d="M138.4 303 A10 10 0 0 0 148.4 293"/><path class="rail" d="M148.4 293 V41"/><path class="rail" d="M148.4 41 A10 10 0 0 1 158.4 31"/><path class="rail" d="M40 31 A10 10 0 0 1 50 41"/><path class="rail" d="M50 41 V327"/><path class="rail" d="M50 327 A10 10 0 0 0 60 337"/><g class="terminal"><rect x="60" y="326" width="78.4" height="22" rx="11" ry="11"/><text x="99.2" y="341">DATETIME</text></g><path class="rail" d="M138.4 337 A10 10 0 0 0 148.4 327"/><path class="rail" d="M148.4 327 V41"/><path class="rail" d="M148.4 41 A10 10 0 0 1 158.4 31"/><path class="rail" d="M40 31 A10 10 0 0 1 50 41"/><path class="rail" d="M50 41 V361"/><path class="rail" d="M50 361 A10 10 0 0 0 60 371"/><g class="terminal"><rect x="60" y="360" width="49.2" height="22" rx="11" ry="11"/><text x="84.6" y="375">BLOB</text></g><path class="rail" d="M109.2 371 H138.4"/><path class="rail" d="M138.4 371 A10 10 0 0 0 148.4 361"/><path class="rail" d="M148.4 361 V41"/><path class="rail" d="M148.4 41 A10 10 0 0 1 158.4 31"/><path class="rail" d="M40 31 A10 10 0 0 1 50 41"/><path class="rail" d="M50 41 V395"/><path class="rail" d="M50 395 A10 10 0 0 0 60 405"/><g class="terminal"><rect x="60" y="394" width="49.2" height="22" rx="11" ry="11"/><text x="84.6" y="409">MEMO</text></g><path class="rail" d="M109.2 405 H138.4"/><path class="rail" d="M138.4 405 A10 10 0 0 0 148.4 395"/><path class="rail" d="M148.4 395 V41"/><path class="rail" d="M148.4 41 A10 10 0 0 1 158.4 31"/><path class="rail" d="M158.4 31 H167.4"/><g class="terminator"><circle cx="172.4" cy="31" r="5"/></g></svg>