<svg class="railroad" xmlns="http://www.w3.org/2000/svg" xmlns:xlink="http://www.w3.org/1999/xlink" width="221" height="96" viewBox="0 0 221 96"><g class="terminator"><circle cx="26" cy="31" r="5"/></g><path class="rail" d="M31 31 H40"/><path class="rail" d="M40 31 H60"/><g class="terminal"><rect x="60" y="20" width="32" height="22" rx="11" ry="11"/><text x="76" y="35">-</text></g><path class="rail" d="M92 31 H104"/><a xlink:href="#unary" href="#unary"><g class="nonterminal"><rect x="104" y="20" width="56.5" height="22"/><text x="132.25" y="35">unary</text></g></a><path class="rail" d="M160.5 31 H180.5"/><path class="rail" d="M40 31 A10 10 0 0 1 50 41"/><path class="rail" d="M50 41 V55"/><path class="rail" d="M50 55 A10 10 0 0 0 60 65"/><a xlink:href="#primary" href="#primary"><g class="nonterminal"><rect x="60" y="54" width="71.1" height="22"/><text x="95.55" y="69">primary</text></g></a><path class="rail" d="M131.1 65 H160.5"/><path class="rail" d="M160.5 65 A10 10 0 0 0 170.5 55"/><path class="rail" d="M170.5 55 V41"/><path class="rail" d="M170.5 41 A10 10 0 0 1 180.5 31"/><path class="rail" d="M180.5 31 H189.5"/><g class="terminator"><circle cx="194.5" cy="31" r="5"/></g></svg>