<svg class="railroad" xmlns="http://www.w3.org/2000/svg" xmlns:xlink="http://www.w3.org/1999/xlink" width="542" height="62" viewBox="0 0 542 62"><g class="terminator"><circle cx="26" cy="31" r="5"/></g><path class="rail" d="M31 31 H40"/><g class="terminal"><rect x="40" y="20" width="63.8" height="22" rx="11" ry="11"/><text x="71.9" y="35">UPDATE</text></g><path class="rail" d="M103.8 31 H115.8"/><g class="leaf"><rect x="115.8" y="20" width="93" height="22" rx="11" ry="11"/><text x="162.3" y="35">identifier</text></g><path class="rail" d="M208.8 31 H220.8"/><g class="terminal"><rect x="220.8" y="20" width="41.9" height="22" rx="11" ry="11"/><text x="241.75" y="35">SET</text></g><path class="rail" d="M262.7 31 H274.7"/><a xlink:href="#set_clause_list" href="#set_clause_list"><g class="nonterminal"><rect x="274.7" y="20" width="129.5" height="22"/><text x="339.45" y="35">set_clause_list</text></g></a><path class="rail" d="M404.2 31 H416.2"/><a xlink:href="#where_opt" href="#where_opt"><g class="nonterminal"><rect x="416.2" y="20" width="85.7" height="22"/><text x="459.05" y="35">where_opt</text></g></a><path class="rail" d="M501.90000000000003 31 H510.9000000000001"/><g class="terminator"><circle cx="515.9000000000001" cy="31" r="5"/></g></svg>