<svg class="railroad" xmlns="http://www.w3.org/2000/svg" xmlns:xlink="http://www.w3.org/1999/xlink" width="297" height="74" viewBox="0 0 297 74"><g class="terminator"><circle cx="26" cy="20" r="5"/></g><path class="rail" d="M31 20 H40"/><path class="rail" d="M40 20 H60"/><path class="rail" d="M60 20 H236.1"/><path class="rail" d="M236.1 20 H256.1"/><path class="rail" d="M40 20 A10 10 0 0 1 50 30"/><path class="rail" d="M50 30 V33"/><path class="rail" d="M50 33 A10 10 0 0 0 60 43"/><g class="terminal"><rect x="60" y="32" width="56.5" height="22" rx="11" ry="11"/><text x="88.25" y="47">WHERE</text></g><path class="rail" d="M116.5 43 H128.5"/><a xlink:href="#predicate_or" href="#predicate_or"><g class="nonterminal"><rect x="128.5" y="32" width="107.6" height="22"/><text x="182.3" y="47">predicate_or</text></g></a><path class="rail" d="M236.1 43 A10 10 0 0 0 246.1 33"/><path class="rail" d="M246.1 33 V30"/><path class="rail" d="M246.1 30 A10 10 0 0 1 256.1 20"/><path class="rail" d="M256.1 20 H265.1"/><g class="terminator"><circle cx="270.1" cy="20" r="5"/></g></svg>